%TF.GenerationSoftware,KiCad,Pcbnew,5.0.2-bee76a0~70~ubuntu16.04.1*%
%TF.CreationDate,2019-06-12T18:19:31-07:00*%
%TF.ProjectId,radiotxt,72616469-6f74-4787-942e-6b696361645f,rev?*%
%TF.SameCoordinates,PX68290a0PY463f660*%
%TF.FileFunction,Soldermask,Bot*%
%TF.FilePolarity,Negative*%
%FSLAX46Y46*%
G04 Gerber Fmt 4.6, Leading zero omitted, Abs format (unit mm)*
G04 Created by KiCad (PCBNEW 5.0.2-bee76a0~70~ubuntu16.04.1) date Wed 12 Jun 2019 06:19:31 PM PDT*
%MOMM*%
%LPD*%
G01*
G04 APERTURE LIST*
%ADD10C,0.150000*%
G04 APERTURE END LIST*
D10*
X0Y0D02*
X97155000Y0D01*
X94615000Y-81280000D02*
X97155000Y-78740000D01*
X2540000Y-81280000D02*
X0Y-78740000D01*
X94615000Y-81280000D02*
X2540000Y-81280000D01*
X97155000Y0D02*
X97155000Y-78740000D01*
X0Y0D02*
X0Y-78740000D01*
G36*
X3417323Y-52340060D02*
X3656521Y-52387639D01*
X3956947Y-52512080D01*
X4227324Y-52692740D01*
X4457260Y-52922676D01*
X4637920Y-53193053D01*
X4762361Y-53493479D01*
X4825800Y-53812410D01*
X4825800Y-54137590D01*
X4762361Y-54456521D01*
X4637920Y-54756947D01*
X4457260Y-55027324D01*
X4227324Y-55257260D01*
X3956947Y-55437920D01*
X3656521Y-55562361D01*
X3417323Y-55609940D01*
X3337591Y-55625800D01*
X3012409Y-55625800D01*
X2932677Y-55609940D01*
X2693479Y-55562361D01*
X2393053Y-55437920D01*
X2122676Y-55257260D01*
X1892740Y-55027324D01*
X1712080Y-54756947D01*
X1587639Y-54456521D01*
X1524200Y-54137590D01*
X1524200Y-53812410D01*
X1587639Y-53493479D01*
X1712080Y-53193053D01*
X1892740Y-52922676D01*
X2122676Y-52692740D01*
X2393053Y-52512080D01*
X2693479Y-52387639D01*
X2932677Y-52340060D01*
X3012409Y-52324200D01*
X3337591Y-52324200D01*
X3417323Y-52340060D01*
X3417323Y-52340060D01*
G37*
G36*
X93587323Y-52340060D02*
X93826521Y-52387639D01*
X94126947Y-52512080D01*
X94397324Y-52692740D01*
X94627260Y-52922676D01*
X94807920Y-53193053D01*
X94932361Y-53493479D01*
X94995800Y-53812410D01*
X94995800Y-54137590D01*
X94932361Y-54456521D01*
X94807920Y-54756947D01*
X94627260Y-55027324D01*
X94397324Y-55257260D01*
X94126947Y-55437920D01*
X93826521Y-55562361D01*
X93587323Y-55609940D01*
X93507591Y-55625800D01*
X93182409Y-55625800D01*
X93102677Y-55609940D01*
X92863479Y-55562361D01*
X92563053Y-55437920D01*
X92292676Y-55257260D01*
X92062740Y-55027324D01*
X91882080Y-54756947D01*
X91757639Y-54456521D01*
X91694200Y-54137590D01*
X91694200Y-53812410D01*
X91757639Y-53493479D01*
X91882080Y-53193053D01*
X92062740Y-52922676D01*
X92292676Y-52692740D01*
X92563053Y-52512080D01*
X92863479Y-52387639D01*
X93102677Y-52340060D01*
X93182409Y-52324200D01*
X93507591Y-52324200D01*
X93587323Y-52340060D01*
X93587323Y-52340060D01*
G37*
G36*
X41838362Y-31443545D02*
X41926588Y-31452234D01*
X42039789Y-31486573D01*
X42096390Y-31503743D01*
X42234980Y-31577822D01*
X42252879Y-31587389D01*
X42288609Y-31616712D01*
X42390044Y-31699956D01*
X42473288Y-31801391D01*
X42502611Y-31837121D01*
X42502612Y-31837123D01*
X42586257Y-31993610D01*
X42586257Y-31993611D01*
X42637766Y-32163412D01*
X42655158Y-32340000D01*
X42637766Y-32516588D01*
X42603427Y-32629789D01*
X42586257Y-32686390D01*
X42512178Y-32824980D01*
X42502611Y-32842879D01*
X42473288Y-32878609D01*
X42390044Y-32980044D01*
X42288609Y-33063288D01*
X42252879Y-33092611D01*
X42252877Y-33092612D01*
X42096390Y-33176257D01*
X42039789Y-33193427D01*
X41926588Y-33227766D01*
X41838362Y-33236455D01*
X41794250Y-33240800D01*
X41705750Y-33240800D01*
X41661638Y-33236455D01*
X41573412Y-33227766D01*
X41460211Y-33193427D01*
X41403610Y-33176257D01*
X41247123Y-33092612D01*
X41247121Y-33092611D01*
X41211391Y-33063288D01*
X41109956Y-32980044D01*
X41026712Y-32878609D01*
X40997389Y-32842879D01*
X40987822Y-32824980D01*
X40913743Y-32686390D01*
X40896573Y-32629789D01*
X40862234Y-32516588D01*
X40844842Y-32340000D01*
X40862234Y-32163412D01*
X40913743Y-31993611D01*
X40913743Y-31993610D01*
X40997388Y-31837123D01*
X40997389Y-31837121D01*
X41026712Y-31801391D01*
X41109956Y-31699956D01*
X41211391Y-31616712D01*
X41247121Y-31587389D01*
X41265020Y-31577822D01*
X41403610Y-31503743D01*
X41460211Y-31486573D01*
X41573412Y-31452234D01*
X41661638Y-31443545D01*
X41705750Y-31439200D01*
X41794250Y-31439200D01*
X41838362Y-31443545D01*
X41838362Y-31443545D01*
G37*
G36*
X46918362Y-31443545D02*
X47006588Y-31452234D01*
X47119789Y-31486573D01*
X47176390Y-31503743D01*
X47314980Y-31577822D01*
X47332879Y-31587389D01*
X47368609Y-31616712D01*
X47470044Y-31699956D01*
X47553288Y-31801391D01*
X47582611Y-31837121D01*
X47582612Y-31837123D01*
X47666257Y-31993610D01*
X47666257Y-31993611D01*
X47717766Y-32163412D01*
X47735158Y-32340000D01*
X47717766Y-32516588D01*
X47683427Y-32629789D01*
X47666257Y-32686390D01*
X47592178Y-32824980D01*
X47582611Y-32842879D01*
X47553288Y-32878609D01*
X47470044Y-32980044D01*
X47368609Y-33063288D01*
X47332879Y-33092611D01*
X47332877Y-33092612D01*
X47176390Y-33176257D01*
X47119789Y-33193427D01*
X47006588Y-33227766D01*
X46918362Y-33236455D01*
X46874250Y-33240800D01*
X46785750Y-33240800D01*
X46741638Y-33236455D01*
X46653412Y-33227766D01*
X46540211Y-33193427D01*
X46483610Y-33176257D01*
X46327123Y-33092612D01*
X46327121Y-33092611D01*
X46291391Y-33063288D01*
X46189956Y-32980044D01*
X46106712Y-32878609D01*
X46077389Y-32842879D01*
X46067822Y-32824980D01*
X45993743Y-32686390D01*
X45976573Y-32629789D01*
X45942234Y-32516588D01*
X45924842Y-32340000D01*
X45942234Y-32163412D01*
X45993743Y-31993611D01*
X45993743Y-31993610D01*
X46077388Y-31837123D01*
X46077389Y-31837121D01*
X46106712Y-31801391D01*
X46189956Y-31699956D01*
X46291391Y-31616712D01*
X46327121Y-31587389D01*
X46345020Y-31577822D01*
X46483610Y-31503743D01*
X46540211Y-31486573D01*
X46653412Y-31452234D01*
X46741638Y-31443545D01*
X46785750Y-31439200D01*
X46874250Y-31439200D01*
X46918362Y-31443545D01*
X46918362Y-31443545D01*
G37*
G36*
X45190800Y-33240800D02*
X43389200Y-33240800D01*
X43389200Y-31439200D01*
X45190800Y-31439200D01*
X45190800Y-33240800D01*
X45190800Y-33240800D01*
G37*
G36*
X40110800Y-33240800D02*
X38309200Y-33240800D01*
X38309200Y-31439200D01*
X40110800Y-31439200D01*
X40110800Y-33240800D01*
X40110800Y-33240800D01*
G37*
G36*
X93587323Y-1540060D02*
X93826521Y-1587639D01*
X94126947Y-1712080D01*
X94397324Y-1892740D01*
X94627260Y-2122676D01*
X94807920Y-2393053D01*
X94932361Y-2693479D01*
X94995800Y-3012410D01*
X94995800Y-3337590D01*
X94932361Y-3656521D01*
X94807920Y-3956947D01*
X94627260Y-4227324D01*
X94397324Y-4457260D01*
X94126947Y-4637920D01*
X93826521Y-4762361D01*
X93587323Y-4809940D01*
X93507591Y-4825800D01*
X93182409Y-4825800D01*
X93102677Y-4809940D01*
X92863479Y-4762361D01*
X92563053Y-4637920D01*
X92292676Y-4457260D01*
X92062740Y-4227324D01*
X91882080Y-3956947D01*
X91757639Y-3656521D01*
X91694200Y-3337590D01*
X91694200Y-3012410D01*
X91757639Y-2693479D01*
X91882080Y-2393053D01*
X92062740Y-2122676D01*
X92292676Y-1892740D01*
X92563053Y-1712080D01*
X92863479Y-1587639D01*
X93102677Y-1540060D01*
X93182409Y-1524200D01*
X93507591Y-1524200D01*
X93587323Y-1540060D01*
X93587323Y-1540060D01*
G37*
G36*
X3417323Y-1540060D02*
X3656521Y-1587639D01*
X3956947Y-1712080D01*
X4227324Y-1892740D01*
X4457260Y-2122676D01*
X4637920Y-2393053D01*
X4762361Y-2693479D01*
X4825800Y-3012410D01*
X4825800Y-3337590D01*
X4762361Y-3656521D01*
X4637920Y-3956947D01*
X4457260Y-4227324D01*
X4227324Y-4457260D01*
X3956947Y-4637920D01*
X3656521Y-4762361D01*
X3417323Y-4809940D01*
X3337591Y-4825800D01*
X3012409Y-4825800D01*
X2932677Y-4809940D01*
X2693479Y-4762361D01*
X2393053Y-4637920D01*
X2122676Y-4457260D01*
X1892740Y-4227324D01*
X1712080Y-3956947D01*
X1587639Y-3656521D01*
X1524200Y-3337590D01*
X1524200Y-3012410D01*
X1587639Y-2693479D01*
X1712080Y-2393053D01*
X1892740Y-2122676D01*
X2122676Y-1892740D01*
X2393053Y-1712080D01*
X2693479Y-1587639D01*
X2932677Y-1540060D01*
X3012409Y-1524200D01*
X3337591Y-1524200D01*
X3417323Y-1540060D01*
X3417323Y-1540060D01*
G37*
G36*
X15963362Y-2278545D02*
X16051588Y-2287234D01*
X16164789Y-2321573D01*
X16221390Y-2338743D01*
X16359980Y-2412822D01*
X16377879Y-2422389D01*
X16413609Y-2451712D01*
X16515044Y-2534956D01*
X16598288Y-2636391D01*
X16627611Y-2672121D01*
X16627612Y-2672123D01*
X16711257Y-2828610D01*
X16711257Y-2828611D01*
X16762766Y-2998412D01*
X16780158Y-3175000D01*
X16762766Y-3351588D01*
X16728427Y-3464789D01*
X16711257Y-3521390D01*
X16639029Y-3656518D01*
X16627611Y-3677879D01*
X16598288Y-3713609D01*
X16515044Y-3815044D01*
X16413609Y-3898288D01*
X16377879Y-3927611D01*
X16377877Y-3927612D01*
X16221390Y-4011257D01*
X16164789Y-4028427D01*
X16051588Y-4062766D01*
X15963362Y-4071455D01*
X15919250Y-4075800D01*
X15830750Y-4075800D01*
X15786638Y-4071455D01*
X15698412Y-4062766D01*
X15585211Y-4028427D01*
X15528610Y-4011257D01*
X15372123Y-3927612D01*
X15372121Y-3927611D01*
X15336391Y-3898288D01*
X15234956Y-3815044D01*
X15151712Y-3713609D01*
X15122389Y-3677879D01*
X15110971Y-3656518D01*
X15038743Y-3521390D01*
X15021573Y-3464789D01*
X14987234Y-3351588D01*
X14969842Y-3175000D01*
X14987234Y-2998412D01*
X15038743Y-2828611D01*
X15038743Y-2828610D01*
X15122388Y-2672123D01*
X15122389Y-2672121D01*
X15151712Y-2636391D01*
X15234956Y-2534956D01*
X15336391Y-2451712D01*
X15372121Y-2422389D01*
X15390020Y-2412822D01*
X15528610Y-2338743D01*
X15585211Y-2321573D01*
X15698412Y-2287234D01*
X15786638Y-2278545D01*
X15830750Y-2274200D01*
X15919250Y-2274200D01*
X15963362Y-2278545D01*
X15963362Y-2278545D01*
G37*
G36*
X26123362Y-2278545D02*
X26211588Y-2287234D01*
X26324789Y-2321573D01*
X26381390Y-2338743D01*
X26519980Y-2412822D01*
X26537879Y-2422389D01*
X26573609Y-2451712D01*
X26675044Y-2534956D01*
X26758288Y-2636391D01*
X26787611Y-2672121D01*
X26787612Y-2672123D01*
X26871257Y-2828610D01*
X26871257Y-2828611D01*
X26922766Y-2998412D01*
X26940158Y-3175000D01*
X26922766Y-3351588D01*
X26888427Y-3464789D01*
X26871257Y-3521390D01*
X26799029Y-3656518D01*
X26787611Y-3677879D01*
X26758288Y-3713609D01*
X26675044Y-3815044D01*
X26573609Y-3898288D01*
X26537879Y-3927611D01*
X26537877Y-3927612D01*
X26381390Y-4011257D01*
X26324789Y-4028427D01*
X26211588Y-4062766D01*
X26123362Y-4071455D01*
X26079250Y-4075800D01*
X25990750Y-4075800D01*
X25946638Y-4071455D01*
X25858412Y-4062766D01*
X25745211Y-4028427D01*
X25688610Y-4011257D01*
X25532123Y-3927612D01*
X25532121Y-3927611D01*
X25496391Y-3898288D01*
X25394956Y-3815044D01*
X25311712Y-3713609D01*
X25282389Y-3677879D01*
X25270971Y-3656518D01*
X25198743Y-3521390D01*
X25181573Y-3464789D01*
X25147234Y-3351588D01*
X25129842Y-3175000D01*
X25147234Y-2998412D01*
X25198743Y-2828611D01*
X25198743Y-2828610D01*
X25282388Y-2672123D01*
X25282389Y-2672121D01*
X25311712Y-2636391D01*
X25394956Y-2534956D01*
X25496391Y-2451712D01*
X25532121Y-2422389D01*
X25550020Y-2412822D01*
X25688610Y-2338743D01*
X25745211Y-2321573D01*
X25858412Y-2287234D01*
X25946638Y-2278545D01*
X25990750Y-2274200D01*
X26079250Y-2274200D01*
X26123362Y-2278545D01*
X26123362Y-2278545D01*
G37*
G36*
X23583362Y-2278545D02*
X23671588Y-2287234D01*
X23784789Y-2321573D01*
X23841390Y-2338743D01*
X23979980Y-2412822D01*
X23997879Y-2422389D01*
X24033609Y-2451712D01*
X24135044Y-2534956D01*
X24218288Y-2636391D01*
X24247611Y-2672121D01*
X24247612Y-2672123D01*
X24331257Y-2828610D01*
X24331257Y-2828611D01*
X24382766Y-2998412D01*
X24400158Y-3175000D01*
X24382766Y-3351588D01*
X24348427Y-3464789D01*
X24331257Y-3521390D01*
X24259029Y-3656518D01*
X24247611Y-3677879D01*
X24218288Y-3713609D01*
X24135044Y-3815044D01*
X24033609Y-3898288D01*
X23997879Y-3927611D01*
X23997877Y-3927612D01*
X23841390Y-4011257D01*
X23784789Y-4028427D01*
X23671588Y-4062766D01*
X23583362Y-4071455D01*
X23539250Y-4075800D01*
X23450750Y-4075800D01*
X23406638Y-4071455D01*
X23318412Y-4062766D01*
X23205211Y-4028427D01*
X23148610Y-4011257D01*
X22992123Y-3927612D01*
X22992121Y-3927611D01*
X22956391Y-3898288D01*
X22854956Y-3815044D01*
X22771712Y-3713609D01*
X22742389Y-3677879D01*
X22730971Y-3656518D01*
X22658743Y-3521390D01*
X22641573Y-3464789D01*
X22607234Y-3351588D01*
X22589842Y-3175000D01*
X22607234Y-2998412D01*
X22658743Y-2828611D01*
X22658743Y-2828610D01*
X22742388Y-2672123D01*
X22742389Y-2672121D01*
X22771712Y-2636391D01*
X22854956Y-2534956D01*
X22956391Y-2451712D01*
X22992121Y-2422389D01*
X23010020Y-2412822D01*
X23148610Y-2338743D01*
X23205211Y-2321573D01*
X23318412Y-2287234D01*
X23406638Y-2278545D01*
X23450750Y-2274200D01*
X23539250Y-2274200D01*
X23583362Y-2278545D01*
X23583362Y-2278545D01*
G37*
G36*
X21043362Y-2278545D02*
X21131588Y-2287234D01*
X21244789Y-2321573D01*
X21301390Y-2338743D01*
X21439980Y-2412822D01*
X21457879Y-2422389D01*
X21493609Y-2451712D01*
X21595044Y-2534956D01*
X21678288Y-2636391D01*
X21707611Y-2672121D01*
X21707612Y-2672123D01*
X21791257Y-2828610D01*
X21791257Y-2828611D01*
X21842766Y-2998412D01*
X21860158Y-3175000D01*
X21842766Y-3351588D01*
X21808427Y-3464789D01*
X21791257Y-3521390D01*
X21719029Y-3656518D01*
X21707611Y-3677879D01*
X21678288Y-3713609D01*
X21595044Y-3815044D01*
X21493609Y-3898288D01*
X21457879Y-3927611D01*
X21457877Y-3927612D01*
X21301390Y-4011257D01*
X21244789Y-4028427D01*
X21131588Y-4062766D01*
X21043362Y-4071455D01*
X20999250Y-4075800D01*
X20910750Y-4075800D01*
X20866638Y-4071455D01*
X20778412Y-4062766D01*
X20665211Y-4028427D01*
X20608610Y-4011257D01*
X20452123Y-3927612D01*
X20452121Y-3927611D01*
X20416391Y-3898288D01*
X20314956Y-3815044D01*
X20231712Y-3713609D01*
X20202389Y-3677879D01*
X20190971Y-3656518D01*
X20118743Y-3521390D01*
X20101573Y-3464789D01*
X20067234Y-3351588D01*
X20049842Y-3175000D01*
X20067234Y-2998412D01*
X20118743Y-2828611D01*
X20118743Y-2828610D01*
X20202388Y-2672123D01*
X20202389Y-2672121D01*
X20231712Y-2636391D01*
X20314956Y-2534956D01*
X20416391Y-2451712D01*
X20452121Y-2422389D01*
X20470020Y-2412822D01*
X20608610Y-2338743D01*
X20665211Y-2321573D01*
X20778412Y-2287234D01*
X20866638Y-2278545D01*
X20910750Y-2274200D01*
X20999250Y-2274200D01*
X21043362Y-2278545D01*
X21043362Y-2278545D01*
G37*
G36*
X18503362Y-2278545D02*
X18591588Y-2287234D01*
X18704789Y-2321573D01*
X18761390Y-2338743D01*
X18899980Y-2412822D01*
X18917879Y-2422389D01*
X18953609Y-2451712D01*
X19055044Y-2534956D01*
X19138288Y-2636391D01*
X19167611Y-2672121D01*
X19167612Y-2672123D01*
X19251257Y-2828610D01*
X19251257Y-2828611D01*
X19302766Y-2998412D01*
X19320158Y-3175000D01*
X19302766Y-3351588D01*
X19268427Y-3464789D01*
X19251257Y-3521390D01*
X19179029Y-3656518D01*
X19167611Y-3677879D01*
X19138288Y-3713609D01*
X19055044Y-3815044D01*
X18953609Y-3898288D01*
X18917879Y-3927611D01*
X18917877Y-3927612D01*
X18761390Y-4011257D01*
X18704789Y-4028427D01*
X18591588Y-4062766D01*
X18503362Y-4071455D01*
X18459250Y-4075800D01*
X18370750Y-4075800D01*
X18326638Y-4071455D01*
X18238412Y-4062766D01*
X18125211Y-4028427D01*
X18068610Y-4011257D01*
X17912123Y-3927612D01*
X17912121Y-3927611D01*
X17876391Y-3898288D01*
X17774956Y-3815044D01*
X17691712Y-3713609D01*
X17662389Y-3677879D01*
X17650971Y-3656518D01*
X17578743Y-3521390D01*
X17561573Y-3464789D01*
X17527234Y-3351588D01*
X17509842Y-3175000D01*
X17527234Y-2998412D01*
X17578743Y-2828611D01*
X17578743Y-2828610D01*
X17662388Y-2672123D01*
X17662389Y-2672121D01*
X17691712Y-2636391D01*
X17774956Y-2534956D01*
X17876391Y-2451712D01*
X17912121Y-2422389D01*
X17930020Y-2412822D01*
X18068610Y-2338743D01*
X18125211Y-2321573D01*
X18238412Y-2287234D01*
X18326638Y-2278545D01*
X18370750Y-2274200D01*
X18459250Y-2274200D01*
X18503362Y-2278545D01*
X18503362Y-2278545D01*
G37*
G36*
X14235800Y-4075800D02*
X12434200Y-4075800D01*
X12434200Y-2274200D01*
X14235800Y-2274200D01*
X14235800Y-4075800D01*
X14235800Y-4075800D01*
G37*
M02*
