M48
;DRILL file {KiCad 5.0.2-bee76a0~70~ubuntu16.04.1} date Wed 12 Jun 2019 06:19:28 PM PDT
;FORMAT={-:-/ absolute / inch / decimal}
FMAT,2
INCH,TZ
T1C0.0130
T2C0.0260
T3C0.0394
T4C0.0984
%
G90
G05
T1
X0.1246Y-1.7118
X0.1766Y-0.9567
X0.247Y-1.2185
X0.2699Y-1.4894
X0.3073Y-0.7579
X0.3352Y-1.4201
X0.345Y-1.945
X0.3636Y-1.128
X0.4112Y-1.4906
X0.4136Y-0.428
X0.4569Y-1.1063
X0.4636Y-1.228
X0.6136Y-1.228
X0.6726Y-1.2866
X0.7136Y-1.028
X0.7333Y-0.802
X0.7451Y-0.4476
X0.7474Y-1.3882
X0.7886Y-1.0452
X0.9006Y-1.5929
X0.9217Y-0.2402
X1.0114Y-0.3571
X1.0276Y-1.0118
X1.0278Y-1.4933
X1.0439Y-1.9134
X1.0461Y-1.4325
X1.0669Y-1.1033
X1.1136Y-1.578
X1.1197Y-1.1256
X1.1665Y-0.8091
X1.1689Y-1.1237
X1.1988Y-0.9594
X1.2124Y-2.4197
X1.2232Y-1.137
X1.2692Y-1.0205
X1.2713Y-0.7567
X1.2866Y-1.3886
X1.3035Y-0.976
X1.3122Y-1.363
X1.3138Y-0.4516
X1.3181Y-1.1213
X1.325Y-1.525
X1.3278Y-1.7
X1.3386Y-0.9311
X1.3535Y-1.3646
X1.3891Y-1.1958
X1.4114Y-0.7748
X1.4161Y-1.3657
X1.4197Y-1.126
X1.4506Y-1.6031
X1.4508Y-0.7705
X1.4811Y-1.0862
X1.4862Y-0.7583
X1.511Y-1.1284
X1.5118Y-0.4874
X1.522Y-0.6248
X1.5577Y-2.7969
X1.5732Y-0.4843
X1.6087Y-0.7049
X1.6144Y-1.813
X1.6636Y-1.728
X1.6656Y-0.8285
X1.7909Y-1.0756
X1.8051Y-0.9287
X1.8339Y-1.1138
X1.8435Y-1.9484
X1.8476Y-0.9185
X1.8532Y-0.8828
X1.8671Y-0.2114
X1.8689Y-0.848
X1.8844Y-0.7933
X1.9025Y-0.7433
X2.0136Y-0.578
X2.0136Y-1.578
X2.0176Y-1.232
X2.0234Y-1.4618
X2.0246Y-1.0776
X2.1403Y-0.1696
X2.1636Y-1.628
X2.1766Y-1.5567
X2.2982Y-1.6665
X2.2994Y-0.3925
X2.3443Y-0.7031
X2.3986Y-0.5803
X2.4183Y-0.172
X2.4636Y-1.328
X2.5136Y-0.828
X2.5321Y-1.6807
X2.5455Y-0.4689
X2.6238Y-0.6921
X2.7376Y-0.1823
X2.9124Y-0.3602
X2.9124Y-1.5665
X3.0037Y-1.011
X3.0502Y-0.1957
X3.1526Y-1.1854
X3.315Y-0.5671
X3.338Y-0.1941
X3.373Y-1.0071
X3.4104Y-1.6862
X3.4183Y-1.1969
X3.4376Y-0.3976
X3.5136Y-0.628
X3.5136Y-0.8067
X3.5179Y-1.8016
X3.525Y-1.365
X3.5278Y-2.3461
X3.575Y-1.0232
X3.6573Y-1.6677
X3.6632Y-0.4634
X3.6636Y-1.478
X3.675Y-0.835
X3.7057Y-0.7843
T2
X0.9098Y-0.6965
X1.1173Y-0.3508
X1.1449Y-0.1417
X1.174Y-1.3547
X1.2094Y-0.5057
X1.328Y-0.5049
X1.4437Y-0.5053
X1.7744Y-0.3264
X2.0941Y-0.5185
T3
X1.5437Y-1.2732
X1.6437Y-1.2732
X1.7437Y-1.2732
X1.8437Y-1.2732
X0.525Y-0.125
X0.625Y-0.125
X0.725Y-0.125
X0.825Y-0.125
X0.925Y-0.125
X1.025Y-0.125
T4
X3.675Y-2.125
X0.125Y-2.125
X3.675Y-0.125
X0.125Y-0.125
T0
M30
