%TF.GenerationSoftware,KiCad,Pcbnew,5.0.2-bee76a0~70~ubuntu16.04.1*%
%TF.CreationDate,2019-06-12T18:19:31-07:00*%
%TF.ProjectId,radiotxt,72616469-6f74-4787-942e-6b696361645f,rev?*%
%TF.SameCoordinates,PX68290a0PY463f660*%
%TF.FileFunction,Copper,L2,Bot*%
%TF.FilePolarity,Positive*%
%FSLAX46Y46*%
G04 Gerber Fmt 4.6, Leading zero omitted, Abs format (unit mm)*
G04 Created by KiCad (PCBNEW 5.0.2-bee76a0~70~ubuntu16.04.1) date Wed 12 Jun 2019 06:19:31 PM PDT*
%MOMM*%
%LPD*%
G01*
G04 APERTURE LIST*
%ADD10C,0.150000*%
%ADD11C,3.200000*%
%ADD12R,1.700000X1.700000*%
%ADD13O,1.700000X1.700000*%
%ADD14C,0.685800*%
%ADD15C,1.270000*%
%ADD16C,0.200000*%
%ADD17C,0.300000*%
%ADD18C,0.254000*%
G04 APERTURE END LIST*
D10*
X0Y0D02*
X97155000Y0D01*
X94615000Y-81280000D02*
X97155000Y-78740000D01*
X2540000Y-81280000D02*
X0Y-78740000D01*
X94615000Y-81280000D02*
X2540000Y-81280000D01*
X97155000Y0D02*
X97155000Y-78740000D01*
X0Y0D02*
X0Y-78740000D01*
D11*
X93345000Y-53975000D03*
X3175000Y-3175000D03*
X93345000Y-3175000D03*
X3175000Y-53975000D03*
D12*
X13335000Y-3175000D03*
D13*
X15875000Y-3175000D03*
X18415000Y-3175000D03*
X20955000Y-3175000D03*
X23495000Y-3175000D03*
X26035000Y-3175000D03*
D12*
X39210000Y-32340000D03*
D13*
X41750000Y-32340000D03*
D12*
X44290000Y-32340000D03*
D13*
X46830000Y-32340000D03*
D14*
X32237196Y-25920000D03*
X51425000Y-27370000D03*
X87315000Y-10100000D03*
X93045000Y-11770000D03*
X58405000Y-9970000D03*
X64655000Y-11910000D03*
X18985000Y-35260000D03*
X26570253Y-36384747D03*
X4485000Y-24300000D03*
X6855000Y-37830000D03*
X3165000Y-43480000D03*
X8763000Y-49403000D03*
X10445000Y-37860000D03*
X7805000Y-19250000D03*
X22875000Y-40460000D03*
X11605000Y-28100000D03*
X54955000Y-41350000D03*
X42255000Y-43890000D03*
X28285000Y-40080000D03*
X33725000Y-43180000D03*
X18925000Y-11370000D03*
X18625000Y-20370000D03*
X33655000Y-38735000D03*
X31070000Y-28880000D03*
X32680000Y-35270000D03*
X62575000Y-33730000D03*
X51145000Y-40080000D03*
X41005000Y-46050000D03*
X46825000Y-49490000D03*
X51247107Y-31292107D03*
X76295000Y-25680000D03*
X55285000Y-39540000D03*
X63845000Y-21030000D03*
X51145000Y-14680000D03*
X80075000Y-30110000D03*
X60925000Y-14740000D03*
X85675000Y-25580000D03*
X73975000Y-39790000D03*
X89245000Y-20490000D03*
X73975000Y-9150000D03*
X89535000Y-34671000D03*
X93345000Y-21209000D03*
X94125099Y-19920901D03*
X84201000Y-14405064D03*
X89245000Y-15950000D03*
X93055000Y-37540000D03*
X89355000Y-45760000D03*
X89605000Y-59590000D03*
X66645000Y-17580000D03*
X59545000Y-17860000D03*
X6275000Y-30950000D03*
X8515000Y-36070000D03*
X17085000Y-32680000D03*
X51395000Y-37130000D03*
X90805000Y-25990000D03*
X86825000Y-30400000D03*
X35283587Y-30372800D03*
X36060000Y-28600000D03*
X33110000Y-24790000D03*
X36845000Y-40720000D03*
X92895000Y-42360000D03*
X86625000Y-42830000D03*
X58375000Y-42330000D03*
X64315000Y-42690000D03*
X34000000Y-23650000D03*
X34380000Y-34660000D03*
X37620000Y-27590000D03*
X26515000Y-48600000D03*
X26105000Y-37930000D03*
X28440000Y-28590000D03*
X29630000Y-20550000D03*
X30795000Y-61460000D03*
X29690000Y-28543189D03*
X33330000Y-34620000D03*
X32290000Y-19220000D03*
X9235000Y-28650000D03*
X11775000Y-31190000D03*
X15585000Y-31190000D03*
X20030000Y-26547090D03*
X10505000Y-10870000D03*
X18125000Y-26110000D03*
X26100000Y-25700000D03*
X27100000Y-28022900D03*
X33480000Y-28480000D03*
X30450000Y-24370000D03*
X46930000Y-23330002D03*
X54362893Y-4307893D03*
X47425000Y-5370000D03*
X45850000Y-23590000D03*
X61425000Y-4370000D03*
X47071134Y-22423949D03*
X69535000Y-4630000D03*
X47470000Y-21540000D03*
X77475000Y-4970000D03*
X47862910Y-20150000D03*
X84785000Y-4930000D03*
X48322910Y-18880000D03*
D15*
X28380000Y-8910000D03*
X29820000Y-34410000D03*
X23110000Y-17690000D03*
X45070000Y-8290000D03*
X53190000Y-13170000D03*
X29080000Y-3600000D03*
D14*
X39565000Y-71040000D03*
X37750000Y-19260000D03*
X35970000Y-34690000D03*
X38380100Y-28660686D03*
X33370000Y-11470000D03*
X39960000Y-12300000D03*
X23410000Y-6100000D03*
X38660000Y-15870000D03*
X38400000Y-12380000D03*
D15*
X30720000Y-12845000D03*
X33730000Y-12825000D03*
X36670000Y-12835000D03*
D14*
X42305000Y-21045000D03*
X40860000Y-17905000D03*
X25690000Y-9070000D03*
X35850000Y-19680000D03*
X45490068Y-27320000D03*
X36850000Y-19570000D03*
X46580000Y-28290000D03*
D16*
X87657899Y-10442899D02*
X87657899Y-10792899D01*
X87315000Y-10100000D02*
X87657899Y-10442899D01*
X88635000Y-11770000D02*
X93045000Y-11770000D01*
X87657899Y-10792899D02*
X88635000Y-11770000D01*
X62715000Y-9970000D02*
X64655000Y-11910000D01*
X58405000Y-9970000D02*
X62715000Y-9970000D01*
X35677196Y-29360000D02*
X32237196Y-25920000D01*
X38590000Y-29360000D02*
X35677196Y-29360000D01*
X51425000Y-27370000D02*
X51082101Y-27712899D01*
X51082101Y-27712899D02*
X48697101Y-27712899D01*
X38920000Y-29030000D02*
X38590000Y-29360000D01*
X48697101Y-27712899D02*
X47380000Y-29030000D01*
X47380000Y-29030000D02*
X38920000Y-29030000D01*
X25445506Y-35260000D02*
X26570253Y-36384747D01*
X18985000Y-35260000D02*
X25445506Y-35260000D01*
X4485000Y-24300000D02*
X4485000Y-34860000D01*
X6855000Y-37230000D02*
X6855000Y-37830000D01*
X4485000Y-34860000D02*
X6855000Y-37230000D01*
X8763000Y-49078000D02*
X8763000Y-49403000D01*
X3165000Y-43480000D02*
X8763000Y-49078000D01*
X10102101Y-37517101D02*
X10102101Y-33857101D01*
X10445000Y-37860000D02*
X10102101Y-37517101D01*
X7805000Y-31560000D02*
X7805000Y-19250000D01*
X10102101Y-33857101D02*
X7805000Y-31560000D01*
X11605000Y-29190000D02*
X11605000Y-28100000D01*
X22875000Y-40460000D02*
X11605000Y-29190000D01*
X44795000Y-41350000D02*
X42255000Y-43890000D01*
X54955000Y-41350000D02*
X44795000Y-41350000D01*
X28285000Y-40080000D02*
X30625000Y-40080000D01*
X33382101Y-42837101D02*
X33725000Y-43180000D01*
X30625000Y-40080000D02*
X33382101Y-42837101D01*
X18525000Y-20270000D02*
X18625000Y-20370000D01*
X18525000Y-11770000D02*
X18525000Y-20270000D01*
X18925000Y-11370000D02*
X18525000Y-11770000D01*
X30727101Y-29222899D02*
X31070000Y-28880000D01*
X18625000Y-20370000D02*
X18625000Y-20854933D01*
X18625000Y-20854933D02*
X27040067Y-29270000D01*
X27040067Y-29270000D02*
X30680000Y-29270000D01*
X30680000Y-29270000D02*
X30727101Y-29222899D01*
X33655000Y-36245000D02*
X33022899Y-35612899D01*
X33022899Y-35612899D02*
X32680000Y-35270000D01*
X33655000Y-38735000D02*
X33655000Y-36245000D01*
X51145000Y-40080000D02*
X57495000Y-33730000D01*
X57495000Y-33730000D02*
X62575000Y-33730000D01*
X44445000Y-49490000D02*
X46825000Y-49490000D01*
X41005000Y-46050000D02*
X44445000Y-49490000D01*
X57495000Y-33730000D02*
X53685000Y-33730000D01*
X53685000Y-33730000D02*
X51590006Y-31635006D01*
X51590006Y-31635006D02*
X51247107Y-31292107D01*
X62435000Y-39540000D02*
X55285000Y-39540000D01*
X76295000Y-25680000D02*
X62435000Y-39540000D01*
X51145000Y-14680000D02*
X57495000Y-21030000D01*
X57495000Y-21030000D02*
X63360067Y-21030000D01*
X63360067Y-21030000D02*
X63845000Y-21030000D01*
X68495000Y-25680000D02*
X63845000Y-21030000D01*
X76295000Y-25680000D02*
X68495000Y-25680000D01*
X66306494Y-14740000D02*
X60925000Y-14740000D01*
X80075000Y-28508506D02*
X66306494Y-14740000D01*
X80075000Y-30110000D02*
X80075000Y-28508506D01*
X73975000Y-37280000D02*
X73975000Y-39790000D01*
X85675000Y-25580000D02*
X73975000Y-37280000D01*
X77905000Y-9150000D02*
X73975000Y-9150000D01*
X89245000Y-20490000D02*
X77905000Y-9150000D01*
X89535000Y-34671000D02*
X89877899Y-34328101D01*
X89877899Y-34328101D02*
X93706990Y-30499010D01*
X93706990Y-21570990D02*
X93345000Y-21209000D01*
X93706990Y-30499010D02*
X93706990Y-21570990D01*
X88609262Y-14405064D02*
X84201000Y-14405064D01*
X94125099Y-19920901D02*
X88609262Y-14405064D01*
X89355000Y-59340000D02*
X89605000Y-59590000D01*
X89355000Y-45760000D02*
X89355000Y-59340000D01*
X59825000Y-17580000D02*
X59545000Y-17860000D01*
X66645000Y-17580000D02*
X59825000Y-17580000D01*
X6275000Y-30950000D02*
X6275000Y-33830000D01*
X6275000Y-33830000D02*
X8172101Y-35727101D01*
X8172101Y-35727101D02*
X8515000Y-36070000D01*
X94107000Y-36488000D02*
X93055000Y-37540000D01*
X94107000Y-20812000D02*
X94107000Y-36488000D01*
X89245000Y-15950000D02*
X94107000Y-20812000D01*
X86825000Y-29970000D02*
X86825000Y-30400000D01*
X90805000Y-25990000D02*
X86825000Y-29970000D01*
X34798654Y-30372800D02*
X35283587Y-30372800D01*
X34381454Y-30790000D02*
X34798654Y-30372800D01*
X18975000Y-30790000D02*
X34381454Y-30790000D01*
X17085000Y-32680000D02*
X18975000Y-30790000D01*
X36762901Y-27897099D02*
X36060000Y-28600000D01*
X33110000Y-24790000D02*
X33850001Y-25530001D01*
X33850001Y-25530001D02*
X35074934Y-25530001D01*
X35074934Y-25530001D02*
X36762901Y-27217968D01*
X36762901Y-27217968D02*
X36762901Y-27897099D01*
X35768520Y-30857733D02*
X35283587Y-30372800D01*
X35768520Y-33258520D02*
X35768520Y-30857733D01*
X39640000Y-37130000D02*
X35768520Y-33258520D01*
X51395000Y-37130000D02*
X39640000Y-37130000D01*
X87109933Y-42830000D02*
X86625000Y-42830000D01*
X92425000Y-42830000D02*
X87109933Y-42830000D01*
X92895000Y-42360000D02*
X92425000Y-42830000D01*
X58375000Y-42330000D02*
X63955000Y-42330000D01*
X63972101Y-42347101D02*
X64315000Y-42690000D01*
X63955000Y-42330000D02*
X63972101Y-42347101D01*
X34722899Y-35002899D02*
X34380000Y-34660000D01*
X36845000Y-40720000D02*
X36845000Y-37125000D01*
X36845000Y-37125000D02*
X34722899Y-35002899D01*
X34000000Y-23650000D02*
X37262899Y-26912899D01*
X37262899Y-27232899D02*
X37620000Y-27590000D01*
X37262899Y-26912899D02*
X37262899Y-27232899D01*
X26515000Y-38340000D02*
X26105000Y-37930000D01*
X26515000Y-48600000D02*
X26515000Y-38340000D01*
X28440000Y-21740000D02*
X28440000Y-28590000D01*
X29630000Y-20550000D02*
X28440000Y-21740000D01*
X30795000Y-61460000D02*
X34402899Y-57852101D01*
X33672899Y-34962899D02*
X33330000Y-34620000D01*
X34402899Y-35692899D02*
X33672899Y-34962899D01*
X34402899Y-57852101D02*
X34402899Y-35692899D01*
X29690000Y-28543189D02*
X29690000Y-22000000D01*
X29690000Y-21820000D02*
X32290000Y-19220000D01*
X29690000Y-22000000D02*
X29690000Y-21820000D01*
X9235000Y-28650000D02*
X11775000Y-31190000D01*
X20030000Y-26737100D02*
X20030000Y-26547090D01*
X20030000Y-26745000D02*
X20030000Y-26737100D01*
X15585000Y-31190000D02*
X20030000Y-26745000D01*
X10505000Y-18490000D02*
X17782101Y-25767101D01*
X10505000Y-10870000D02*
X10505000Y-18490000D01*
X17782101Y-25767101D02*
X18125000Y-26110000D01*
X27100000Y-26700000D02*
X27100000Y-28022900D01*
X26100000Y-25700000D02*
X27100000Y-26700000D01*
X33480000Y-28480000D02*
X33137101Y-28137101D01*
X33137101Y-28137101D02*
X33127101Y-28137101D01*
X33127101Y-28137101D02*
X31012899Y-26022899D01*
X31012899Y-24932899D02*
X31012899Y-25230000D01*
X30450000Y-24370000D02*
X31012899Y-24932899D01*
X31012899Y-26022899D02*
X31012899Y-25230000D01*
X46267077Y-12403709D02*
X46267077Y-22667079D01*
X54362893Y-4307893D02*
X46267077Y-12403709D01*
X46587101Y-22987103D02*
X46930000Y-23330002D01*
X46267077Y-22667079D02*
X46587101Y-22987103D01*
X47425000Y-5370000D02*
X47425000Y-10295000D01*
X47425000Y-10295000D02*
X45850000Y-11870000D01*
X45850000Y-23105067D02*
X45850000Y-23590000D01*
X45850000Y-11870000D02*
X45850000Y-23105067D01*
X46728235Y-12851765D02*
X46728235Y-22081050D01*
X55210000Y-4370000D02*
X46728235Y-12851765D01*
X61425000Y-4370000D02*
X55210000Y-4370000D01*
X46728235Y-22081050D02*
X47071134Y-22423949D01*
X47470000Y-21055067D02*
X47470000Y-21540000D01*
X47220000Y-13220000D02*
X47220000Y-20805067D01*
X69535000Y-4630000D02*
X69135000Y-5030000D01*
X55410000Y-5030000D02*
X47220000Y-13220000D01*
X69135000Y-5030000D02*
X55410000Y-5030000D01*
X47220000Y-20805067D02*
X47470000Y-21055067D01*
X77475000Y-4970000D02*
X77014991Y-5430009D01*
X47680000Y-19482157D02*
X47862910Y-19665067D01*
X77014991Y-5430009D02*
X55830687Y-5430009D01*
X47680000Y-13580696D02*
X47680000Y-19482157D01*
X47862910Y-19665067D02*
X47862910Y-20150000D01*
X55830687Y-5430009D02*
X47680000Y-13580696D01*
X83884980Y-5830020D02*
X56159980Y-5830020D01*
X48322910Y-13667090D02*
X48322910Y-18395067D01*
X84785000Y-4930000D02*
X83884980Y-5830020D01*
X56159980Y-5830020D02*
X48322910Y-13667090D01*
X48322910Y-18395067D02*
X48322910Y-18880000D01*
X39565000Y-71040000D02*
X39565000Y-38285000D01*
X39565000Y-38285000D02*
X36312899Y-35032899D01*
X36312899Y-35032899D02*
X35970000Y-34690000D01*
X40880000Y-28040000D02*
X39000786Y-28040000D01*
X38722999Y-28317787D02*
X38380100Y-28660686D01*
X37750000Y-19260000D02*
X41800000Y-23310000D01*
X41800000Y-23310000D02*
X41800000Y-27120000D01*
X39000786Y-28040000D02*
X38722999Y-28317787D01*
X41800000Y-27120000D02*
X40880000Y-28040000D01*
X33370000Y-11470000D02*
X39130000Y-11470000D01*
X39130000Y-11470000D02*
X39960000Y-12300000D01*
X18415000Y-4377081D02*
X20137919Y-6100000D01*
X18415000Y-3175000D02*
X18415000Y-4377081D01*
X20137919Y-6100000D02*
X20550000Y-6100000D01*
X20550000Y-6100000D02*
X20320000Y-6100000D01*
X23410000Y-6100000D02*
X20550000Y-6100000D01*
X38680000Y-12660000D02*
X38400000Y-12380000D01*
X38680000Y-15850000D02*
X38680000Y-12660000D01*
X38660000Y-15870000D02*
X38680000Y-15850000D01*
D17*
X33710000Y-12845000D02*
X33730000Y-12825000D01*
X30720000Y-12845000D02*
X33710000Y-12845000D01*
X36660000Y-12825000D02*
X36670000Y-12835000D01*
X33730000Y-12825000D02*
X36660000Y-12825000D01*
X23410000Y-11810000D02*
X29685000Y-11810000D01*
X15875000Y-4275000D02*
X23410000Y-11810000D01*
X29685000Y-11810000D02*
X30720000Y-12845000D01*
X15875000Y-3175000D02*
X15875000Y-4275000D01*
D16*
X41510000Y-20250000D02*
X41510000Y-18555000D01*
X41510000Y-18555000D02*
X40860000Y-17905000D01*
X42305000Y-21045000D02*
X41510000Y-20250000D01*
X27610000Y-5680000D02*
X26035000Y-4105000D01*
X41510000Y-12360000D02*
X34830000Y-5680000D01*
X40860000Y-17905000D02*
X41510000Y-17255000D01*
X41510000Y-17255000D02*
X41510000Y-12360000D01*
X34830000Y-5680000D02*
X27610000Y-5680000D01*
X26035000Y-4105000D02*
X26035000Y-3175000D01*
X25690000Y-9070000D02*
X25690000Y-6430000D01*
X25690000Y-6430000D02*
X23495000Y-4235000D01*
X23495000Y-4235000D02*
X23495000Y-3175000D01*
X36827978Y-18217089D02*
X38507089Y-18217089D01*
X35850000Y-19195067D02*
X36827978Y-18217089D01*
X35850000Y-19680000D02*
X35850000Y-19195067D01*
X43020000Y-22730000D02*
X43020000Y-25710000D01*
X38507089Y-18217089D02*
X43020000Y-22730000D01*
X43020000Y-25710000D02*
X44630000Y-27320000D01*
X44630000Y-27320000D02*
X45490068Y-27320000D01*
X42380000Y-25950000D02*
X44720000Y-28290000D01*
X42380000Y-22930001D02*
X42380000Y-25950000D01*
X44720000Y-28290000D02*
X46580000Y-28290000D01*
X36850000Y-19570000D02*
X36850000Y-19085067D01*
X36850000Y-19085067D02*
X37317967Y-18617100D01*
X37317967Y-18617100D02*
X38067099Y-18617100D01*
X38067099Y-18617100D02*
X42380000Y-22930001D01*
D18*
G36*
X1702894Y-797048D02*
X1541409Y-904950D01*
X1408466Y-1390505D01*
X3175000Y-3157039D01*
X4941534Y-1390505D01*
X4808591Y-904950D01*
X4380611Y-710000D01*
X92105588Y-710000D01*
X91872894Y-797048D01*
X91711409Y-904950D01*
X91578466Y-1390505D01*
X93345000Y-3157039D01*
X95111534Y-1390505D01*
X94978591Y-904950D01*
X94550611Y-710000D01*
X96445000Y-710000D01*
X96445001Y-78445908D01*
X94320910Y-80570000D01*
X2834091Y-80570000D01*
X710000Y-78445910D01*
X710000Y-55759495D01*
X1408466Y-55759495D01*
X1541409Y-56245050D01*
X2534469Y-56697401D01*
X3625045Y-56735292D01*
X4647106Y-56352952D01*
X4808591Y-56245050D01*
X4941534Y-55759495D01*
X3175000Y-53992961D01*
X1408466Y-55759495D01*
X710000Y-55759495D01*
X710000Y-55214412D01*
X797048Y-55447106D01*
X904950Y-55608591D01*
X1390505Y-55741534D01*
X3157039Y-53975000D01*
X3192961Y-53975000D01*
X4959495Y-55741534D01*
X5445050Y-55608591D01*
X5897401Y-54615531D01*
X5935292Y-53524955D01*
X5552952Y-52502894D01*
X5445050Y-52341409D01*
X4959495Y-52208466D01*
X3192961Y-53975000D01*
X3157039Y-53975000D01*
X1390505Y-52208466D01*
X904950Y-52341409D01*
X710000Y-52769389D01*
X710000Y-52190505D01*
X1408466Y-52190505D01*
X3175000Y-53957039D01*
X4941534Y-52190505D01*
X4808591Y-51704950D01*
X3815531Y-51252599D01*
X2724955Y-51214708D01*
X1702894Y-51597048D01*
X1541409Y-51704950D01*
X1408466Y-52190505D01*
X710000Y-52190505D01*
X710000Y-43285484D01*
X2187100Y-43285484D01*
X2187100Y-43674516D01*
X2335977Y-44033936D01*
X2611064Y-44309023D01*
X2970484Y-44457900D01*
X3103454Y-44457900D01*
X7805291Y-49159738D01*
X7785100Y-49208484D01*
X7785100Y-49597516D01*
X7933977Y-49956936D01*
X8209064Y-50232023D01*
X8568484Y-50380900D01*
X8957516Y-50380900D01*
X9316936Y-50232023D01*
X9592023Y-49956936D01*
X9740900Y-49597516D01*
X9740900Y-49208484D01*
X9592023Y-48849064D01*
X9316936Y-48573977D01*
X9307621Y-48570118D01*
X9292905Y-48548095D01*
X9231538Y-48507091D01*
X4142900Y-43418454D01*
X4142900Y-43285484D01*
X3994023Y-42926064D01*
X3718936Y-42650977D01*
X3359516Y-42502100D01*
X2970484Y-42502100D01*
X2611064Y-42650977D01*
X2335977Y-42926064D01*
X2187100Y-43285484D01*
X710000Y-43285484D01*
X710000Y-24105484D01*
X3507100Y-24105484D01*
X3507100Y-24494516D01*
X3655977Y-24853936D01*
X3750000Y-24947959D01*
X3750001Y-34787611D01*
X3735602Y-34860000D01*
X3792646Y-35146782D01*
X3912474Y-35326117D01*
X3955096Y-35389905D01*
X4016463Y-35430909D01*
X5977837Y-37392284D01*
X5877100Y-37635484D01*
X5877100Y-38024516D01*
X6025977Y-38383936D01*
X6301064Y-38659023D01*
X6660484Y-38807900D01*
X7049516Y-38807900D01*
X7408936Y-38659023D01*
X7684023Y-38383936D01*
X7832900Y-38024516D01*
X7832900Y-37635484D01*
X7684023Y-37276064D01*
X7596065Y-37188106D01*
X7590000Y-37157613D01*
X7590000Y-37157612D01*
X7547354Y-36943217D01*
X7384905Y-36700095D01*
X7323538Y-36659091D01*
X5220000Y-34555554D01*
X5220000Y-30755484D01*
X5297100Y-30755484D01*
X5297100Y-31144516D01*
X5445977Y-31503936D01*
X5540000Y-31597959D01*
X5540001Y-33757611D01*
X5525602Y-33830000D01*
X5582646Y-34116782D01*
X5699790Y-34292100D01*
X5745096Y-34359905D01*
X5806463Y-34400909D01*
X7537100Y-36131547D01*
X7537100Y-36264516D01*
X7685977Y-36623936D01*
X7961064Y-36899023D01*
X8320484Y-37047900D01*
X8709516Y-37047900D01*
X9068936Y-36899023D01*
X9344023Y-36623936D01*
X9367101Y-36568220D01*
X9367101Y-37444717D01*
X9352703Y-37517101D01*
X9367101Y-37589485D01*
X9367101Y-37589488D01*
X9409747Y-37803883D01*
X9467100Y-37889718D01*
X9467100Y-38054516D01*
X9615977Y-38413936D01*
X9891064Y-38689023D01*
X10250484Y-38837900D01*
X10639516Y-38837900D01*
X10998936Y-38689023D01*
X11274023Y-38413936D01*
X11422900Y-38054516D01*
X11422900Y-37665484D01*
X11274023Y-37306064D01*
X10998936Y-37030977D01*
X10837101Y-36963943D01*
X10837101Y-33929484D01*
X10851499Y-33857100D01*
X10837101Y-33784716D01*
X10837101Y-33784713D01*
X10794455Y-33570318D01*
X10632006Y-33327196D01*
X10570638Y-33286192D01*
X8540000Y-31255554D01*
X8540000Y-29337959D01*
X8681064Y-29479023D01*
X9040484Y-29627900D01*
X9173454Y-29627900D01*
X10797100Y-31251547D01*
X10797100Y-31384516D01*
X10945977Y-31743936D01*
X11221064Y-32019023D01*
X11580484Y-32167900D01*
X11969516Y-32167900D01*
X12328936Y-32019023D01*
X12604023Y-31743936D01*
X12752900Y-31384516D01*
X12752900Y-31377346D01*
X21897100Y-40521547D01*
X21897100Y-40654516D01*
X22045977Y-41013936D01*
X22321064Y-41289023D01*
X22680484Y-41437900D01*
X23069516Y-41437900D01*
X23428936Y-41289023D01*
X23704023Y-41013936D01*
X23852900Y-40654516D01*
X23852900Y-40265484D01*
X23704023Y-39906064D01*
X23428936Y-39630977D01*
X23069516Y-39482100D01*
X22936547Y-39482100D01*
X19541203Y-36086756D01*
X19632959Y-35995000D01*
X25141060Y-35995000D01*
X25592353Y-36446294D01*
X25592353Y-36579263D01*
X25741230Y-36938683D01*
X25800291Y-36997744D01*
X25551064Y-37100977D01*
X25275977Y-37376064D01*
X25127100Y-37735484D01*
X25127100Y-38124516D01*
X25275977Y-38483936D01*
X25551064Y-38759023D01*
X25780001Y-38853852D01*
X25780000Y-47952041D01*
X25685977Y-48046064D01*
X25537100Y-48405484D01*
X25537100Y-48794516D01*
X25685977Y-49153936D01*
X25961064Y-49429023D01*
X26320484Y-49577900D01*
X26709516Y-49577900D01*
X27068936Y-49429023D01*
X27344023Y-49153936D01*
X27492900Y-48794516D01*
X27492900Y-48405484D01*
X27344023Y-48046064D01*
X27250000Y-47952041D01*
X27250000Y-38412388D01*
X27264399Y-38340000D01*
X27218231Y-38107900D01*
X27207354Y-38053217D01*
X27082900Y-37866959D01*
X27082900Y-37735484D01*
X26934023Y-37376064D01*
X26874962Y-37317003D01*
X27124189Y-37213770D01*
X27399276Y-36938683D01*
X27548153Y-36579263D01*
X27548153Y-36190231D01*
X27399276Y-35830811D01*
X27124189Y-35555724D01*
X26764769Y-35406847D01*
X26631800Y-35406847D01*
X26016417Y-34791465D01*
X25975411Y-34730095D01*
X25732289Y-34567646D01*
X25517894Y-34525000D01*
X25517890Y-34525000D01*
X25445506Y-34510602D01*
X25373122Y-34525000D01*
X19632959Y-34525000D01*
X19538936Y-34430977D01*
X19179516Y-34282100D01*
X18790484Y-34282100D01*
X18431064Y-34430977D01*
X18158244Y-34703797D01*
X17112346Y-33657900D01*
X17279516Y-33657900D01*
X17638936Y-33509023D01*
X17914023Y-33233936D01*
X18062900Y-32874516D01*
X18062900Y-32741546D01*
X19279447Y-31525000D01*
X34309070Y-31525000D01*
X34381454Y-31539398D01*
X34453838Y-31525000D01*
X34453842Y-31525000D01*
X34668237Y-31482354D01*
X34911359Y-31319905D01*
X34933766Y-31286370D01*
X35033521Y-31327690D01*
X35033520Y-33186135D01*
X35019122Y-33258520D01*
X35033520Y-33330904D01*
X35033520Y-33330907D01*
X35076166Y-33545302D01*
X35238615Y-33788425D01*
X35299985Y-33829431D01*
X35373797Y-33903244D01*
X35190000Y-34087041D01*
X34933936Y-33830977D01*
X34574516Y-33682100D01*
X34185484Y-33682100D01*
X33895270Y-33802311D01*
X33883936Y-33790977D01*
X33524516Y-33642100D01*
X33135484Y-33642100D01*
X32776064Y-33790977D01*
X32500977Y-34066064D01*
X32391167Y-34331167D01*
X32126064Y-34440977D01*
X31850977Y-34716064D01*
X31702100Y-35075484D01*
X31702100Y-35464516D01*
X31850977Y-35823936D01*
X32126064Y-36099023D01*
X32485484Y-36247900D01*
X32618454Y-36247900D01*
X32920001Y-36549447D01*
X32920000Y-38087041D01*
X32825977Y-38181064D01*
X32677100Y-38540484D01*
X32677100Y-38929516D01*
X32825977Y-39288936D01*
X33101064Y-39564023D01*
X33460484Y-39712900D01*
X33667900Y-39712900D01*
X33667900Y-42083453D01*
X31195911Y-39611465D01*
X31154905Y-39550095D01*
X30911783Y-39387646D01*
X30697388Y-39345000D01*
X30697384Y-39345000D01*
X30625000Y-39330602D01*
X30552616Y-39345000D01*
X28932959Y-39345000D01*
X28838936Y-39250977D01*
X28479516Y-39102100D01*
X28090484Y-39102100D01*
X27731064Y-39250977D01*
X27455977Y-39526064D01*
X27307100Y-39885484D01*
X27307100Y-40274516D01*
X27455977Y-40633936D01*
X27731064Y-40909023D01*
X28090484Y-41057900D01*
X28479516Y-41057900D01*
X28838936Y-40909023D01*
X28932959Y-40815000D01*
X30320554Y-40815000D01*
X32747100Y-43241547D01*
X32747100Y-43374516D01*
X32895977Y-43733936D01*
X33171064Y-44009023D01*
X33530484Y-44157900D01*
X33667900Y-44157900D01*
X33667899Y-57547654D01*
X30733454Y-60482100D01*
X30600484Y-60482100D01*
X30241064Y-60630977D01*
X29965977Y-60906064D01*
X29817100Y-61265484D01*
X29817100Y-61654516D01*
X29965977Y-62013936D01*
X30241064Y-62289023D01*
X30600484Y-62437900D01*
X30989516Y-62437900D01*
X31348936Y-62289023D01*
X31624023Y-62013936D01*
X31772900Y-61654516D01*
X31772900Y-61521546D01*
X34871437Y-58423010D01*
X34932804Y-58382006D01*
X35095253Y-58138884D01*
X35137899Y-57924489D01*
X35137899Y-57924488D01*
X35152298Y-57852101D01*
X35137899Y-57779713D01*
X35137899Y-36457345D01*
X36110001Y-37429448D01*
X36110000Y-40072041D01*
X36015977Y-40166064D01*
X35867100Y-40525484D01*
X35867100Y-40914516D01*
X36015977Y-41273936D01*
X36291064Y-41549023D01*
X36650484Y-41697900D01*
X37039516Y-41697900D01*
X37398936Y-41549023D01*
X37674023Y-41273936D01*
X37822900Y-40914516D01*
X37822900Y-40525484D01*
X37674023Y-40166064D01*
X37580000Y-40072041D01*
X37580000Y-37339447D01*
X38830001Y-38589448D01*
X38830000Y-70392041D01*
X38735977Y-70486064D01*
X38587100Y-70845484D01*
X38587100Y-71234516D01*
X38735977Y-71593936D01*
X39011064Y-71869023D01*
X39370484Y-72017900D01*
X39759516Y-72017900D01*
X40118936Y-71869023D01*
X40394023Y-71593936D01*
X40542900Y-71234516D01*
X40542900Y-70845484D01*
X40394023Y-70486064D01*
X40300000Y-70392041D01*
X40300000Y-46727959D01*
X40451064Y-46879023D01*
X40810484Y-47027900D01*
X40943454Y-47027900D01*
X43874091Y-49958538D01*
X43915095Y-50019905D01*
X44158217Y-50182354D01*
X44372612Y-50225000D01*
X44445000Y-50239399D01*
X44517388Y-50225000D01*
X46177041Y-50225000D01*
X46271064Y-50319023D01*
X46630484Y-50467900D01*
X47019516Y-50467900D01*
X47378936Y-50319023D01*
X47654023Y-50043936D01*
X47802900Y-49684516D01*
X47802900Y-49295484D01*
X47654023Y-48936064D01*
X47378936Y-48660977D01*
X47019516Y-48512100D01*
X46630484Y-48512100D01*
X46271064Y-48660977D01*
X46177041Y-48755000D01*
X44749447Y-48755000D01*
X41982900Y-45988454D01*
X41982900Y-45855484D01*
X41862778Y-45565484D01*
X88377100Y-45565484D01*
X88377100Y-45954516D01*
X88525977Y-46313936D01*
X88620000Y-46407959D01*
X88620001Y-59267611D01*
X88605602Y-59340000D01*
X88627100Y-59448079D01*
X88627100Y-59784516D01*
X88775977Y-60143936D01*
X89051064Y-60419023D01*
X89410484Y-60567900D01*
X89799516Y-60567900D01*
X90158936Y-60419023D01*
X90434023Y-60143936D01*
X90582900Y-59784516D01*
X90582900Y-59395484D01*
X90434023Y-59036064D01*
X90158936Y-58760977D01*
X90090000Y-58732423D01*
X90090000Y-55759495D01*
X91578466Y-55759495D01*
X91711409Y-56245050D01*
X92704469Y-56697401D01*
X93795045Y-56735292D01*
X94817106Y-56352952D01*
X94978591Y-56245050D01*
X95111534Y-55759495D01*
X93345000Y-53992961D01*
X91578466Y-55759495D01*
X90090000Y-55759495D01*
X90090000Y-54425045D01*
X90584708Y-54425045D01*
X90967048Y-55447106D01*
X91074950Y-55608591D01*
X91560505Y-55741534D01*
X93327039Y-53975000D01*
X93362961Y-53975000D01*
X95129495Y-55741534D01*
X95615050Y-55608591D01*
X96067401Y-54615531D01*
X96105292Y-53524955D01*
X95722952Y-52502894D01*
X95615050Y-52341409D01*
X95129495Y-52208466D01*
X93362961Y-53975000D01*
X93327039Y-53975000D01*
X91560505Y-52208466D01*
X91074950Y-52341409D01*
X90622599Y-53334469D01*
X90584708Y-54425045D01*
X90090000Y-54425045D01*
X90090000Y-52190505D01*
X91578466Y-52190505D01*
X93345000Y-53957039D01*
X95111534Y-52190505D01*
X94978591Y-51704950D01*
X93985531Y-51252599D01*
X92894955Y-51214708D01*
X91872894Y-51597048D01*
X91711409Y-51704950D01*
X91578466Y-52190505D01*
X90090000Y-52190505D01*
X90090000Y-46407959D01*
X90184023Y-46313936D01*
X90332900Y-45954516D01*
X90332900Y-45565484D01*
X90184023Y-45206064D01*
X89908936Y-44930977D01*
X89549516Y-44782100D01*
X89160484Y-44782100D01*
X88801064Y-44930977D01*
X88525977Y-45206064D01*
X88377100Y-45565484D01*
X41862778Y-45565484D01*
X41834023Y-45496064D01*
X41558936Y-45220977D01*
X41199516Y-45072100D01*
X40810484Y-45072100D01*
X40451064Y-45220977D01*
X40300000Y-45372041D01*
X40300000Y-43695484D01*
X41277100Y-43695484D01*
X41277100Y-44084516D01*
X41425977Y-44443936D01*
X41701064Y-44719023D01*
X42060484Y-44867900D01*
X42449516Y-44867900D01*
X42808936Y-44719023D01*
X43084023Y-44443936D01*
X43232900Y-44084516D01*
X43232900Y-43951546D01*
X45099447Y-42085000D01*
X54307041Y-42085000D01*
X54401064Y-42179023D01*
X54760484Y-42327900D01*
X55149516Y-42327900D01*
X55508936Y-42179023D01*
X55552475Y-42135484D01*
X57397100Y-42135484D01*
X57397100Y-42524516D01*
X57545977Y-42883936D01*
X57821064Y-43159023D01*
X58180484Y-43307900D01*
X58569516Y-43307900D01*
X58928936Y-43159023D01*
X59022959Y-43065000D01*
X63411859Y-43065000D01*
X63485977Y-43243936D01*
X63761064Y-43519023D01*
X64120484Y-43667900D01*
X64509516Y-43667900D01*
X64868936Y-43519023D01*
X65144023Y-43243936D01*
X65292900Y-42884516D01*
X65292900Y-42635484D01*
X85647100Y-42635484D01*
X85647100Y-43024516D01*
X85795977Y-43383936D01*
X86071064Y-43659023D01*
X86430484Y-43807900D01*
X86819516Y-43807900D01*
X87178936Y-43659023D01*
X87272959Y-43565000D01*
X92352616Y-43565000D01*
X92425000Y-43579398D01*
X92497384Y-43565000D01*
X92497388Y-43565000D01*
X92711783Y-43522354D01*
X92954905Y-43359905D01*
X92969608Y-43337900D01*
X93089516Y-43337900D01*
X93448936Y-43189023D01*
X93724023Y-42913936D01*
X93872900Y-42554516D01*
X93872900Y-42165484D01*
X93724023Y-41806064D01*
X93448936Y-41530977D01*
X93089516Y-41382100D01*
X92700484Y-41382100D01*
X92341064Y-41530977D01*
X92065977Y-41806064D01*
X91946295Y-42095000D01*
X87272959Y-42095000D01*
X87178936Y-42000977D01*
X86819516Y-41852100D01*
X86430484Y-41852100D01*
X86071064Y-42000977D01*
X85795977Y-42276064D01*
X85647100Y-42635484D01*
X65292900Y-42635484D01*
X65292900Y-42495484D01*
X65144023Y-42136064D01*
X64868936Y-41860977D01*
X64509516Y-41712100D01*
X64353211Y-41712100D01*
X64241783Y-41637646D01*
X64027388Y-41595000D01*
X64027384Y-41595000D01*
X63955000Y-41580602D01*
X63882616Y-41595000D01*
X59022959Y-41595000D01*
X58928936Y-41500977D01*
X58569516Y-41352100D01*
X58180484Y-41352100D01*
X57821064Y-41500977D01*
X57545977Y-41776064D01*
X57397100Y-42135484D01*
X55552475Y-42135484D01*
X55784023Y-41903936D01*
X55932900Y-41544516D01*
X55932900Y-41155484D01*
X55784023Y-40796064D01*
X55508936Y-40520977D01*
X55490512Y-40513345D01*
X55838936Y-40369023D01*
X55932959Y-40275000D01*
X62362616Y-40275000D01*
X62435000Y-40289398D01*
X62507384Y-40275000D01*
X62507388Y-40275000D01*
X62721783Y-40232354D01*
X62964905Y-40069905D01*
X63005911Y-40008535D01*
X76356547Y-26657900D01*
X76489516Y-26657900D01*
X76848936Y-26509023D01*
X76942503Y-26415456D01*
X79340001Y-28812954D01*
X79340000Y-29462041D01*
X79245977Y-29556064D01*
X79097100Y-29915484D01*
X79097100Y-30304516D01*
X79245977Y-30663936D01*
X79398797Y-30816756D01*
X73506465Y-36709089D01*
X73445095Y-36750095D01*
X73282646Y-36993218D01*
X73240000Y-37207613D01*
X73240000Y-37207616D01*
X73225602Y-37280000D01*
X73240000Y-37352385D01*
X73240001Y-39142040D01*
X73145977Y-39236064D01*
X72997100Y-39595484D01*
X72997100Y-39984516D01*
X73145977Y-40343936D01*
X73421064Y-40619023D01*
X73780484Y-40767900D01*
X74169516Y-40767900D01*
X74528936Y-40619023D01*
X74804023Y-40343936D01*
X74952900Y-39984516D01*
X74952900Y-39595484D01*
X74804023Y-39236064D01*
X74710000Y-39142041D01*
X74710000Y-37584446D01*
X82088962Y-30205484D01*
X85847100Y-30205484D01*
X85847100Y-30594516D01*
X85995977Y-30953936D01*
X86271064Y-31229023D01*
X86630484Y-31377900D01*
X87019516Y-31377900D01*
X87378936Y-31229023D01*
X87654023Y-30953936D01*
X87802900Y-30594516D01*
X87802900Y-30205484D01*
X87751955Y-30082491D01*
X90866547Y-26967900D01*
X90999516Y-26967900D01*
X91358936Y-26819023D01*
X91634023Y-26543936D01*
X91782900Y-26184516D01*
X91782900Y-25795484D01*
X91634023Y-25436064D01*
X91358936Y-25160977D01*
X90999516Y-25012100D01*
X90610484Y-25012100D01*
X90251064Y-25160977D01*
X89975977Y-25436064D01*
X89827100Y-25795484D01*
X89827100Y-25928453D01*
X86356465Y-29399089D01*
X86295095Y-29440095D01*
X86132646Y-29683218D01*
X86126146Y-29715895D01*
X85995977Y-29846064D01*
X85847100Y-30205484D01*
X82088962Y-30205484D01*
X85736547Y-26557900D01*
X85869516Y-26557900D01*
X86228936Y-26409023D01*
X86504023Y-26133936D01*
X86652900Y-25774516D01*
X86652900Y-25385484D01*
X86504023Y-25026064D01*
X86228936Y-24750977D01*
X85869516Y-24602100D01*
X85480484Y-24602100D01*
X85121064Y-24750977D01*
X84845977Y-25026064D01*
X84697100Y-25385484D01*
X84697100Y-25518453D01*
X80810000Y-29405553D01*
X80810000Y-28580890D01*
X80824398Y-28508506D01*
X80810000Y-28436122D01*
X80810000Y-28436118D01*
X80767354Y-28221723D01*
X80604905Y-27978601D01*
X80543538Y-27937597D01*
X66877405Y-14271465D01*
X66836399Y-14210095D01*
X66593277Y-14047646D01*
X66378882Y-14005000D01*
X66378878Y-14005000D01*
X66306494Y-13990602D01*
X66234110Y-14005000D01*
X61572959Y-14005000D01*
X61478936Y-13910977D01*
X61119516Y-13762100D01*
X60730484Y-13762100D01*
X60371064Y-13910977D01*
X60095977Y-14186064D01*
X59947100Y-14545484D01*
X59947100Y-14934516D01*
X60095977Y-15293936D01*
X60371064Y-15569023D01*
X60730484Y-15717900D01*
X61119516Y-15717900D01*
X61478936Y-15569023D01*
X61572959Y-15475000D01*
X66002048Y-15475000D01*
X75472047Y-24945000D01*
X68799447Y-24945000D01*
X64822900Y-20968454D01*
X64822900Y-20835484D01*
X64674023Y-20476064D01*
X64398936Y-20200977D01*
X64039516Y-20052100D01*
X63650484Y-20052100D01*
X63291064Y-20200977D01*
X63197041Y-20295000D01*
X57799447Y-20295000D01*
X55169931Y-17665484D01*
X58567100Y-17665484D01*
X58567100Y-18054516D01*
X58715977Y-18413936D01*
X58991064Y-18689023D01*
X59350484Y-18837900D01*
X59739516Y-18837900D01*
X60098936Y-18689023D01*
X60374023Y-18413936D01*
X60415004Y-18315000D01*
X65997041Y-18315000D01*
X66091064Y-18409023D01*
X66450484Y-18557900D01*
X66839516Y-18557900D01*
X67198936Y-18409023D01*
X67474023Y-18133936D01*
X67622900Y-17774516D01*
X67622900Y-17385484D01*
X67474023Y-17026064D01*
X67198936Y-16750977D01*
X66839516Y-16602100D01*
X66450484Y-16602100D01*
X66091064Y-16750977D01*
X65997041Y-16845000D01*
X59897384Y-16845000D01*
X59825000Y-16830602D01*
X59752616Y-16845000D01*
X59752612Y-16845000D01*
X59566099Y-16882100D01*
X59350484Y-16882100D01*
X58991064Y-17030977D01*
X58715977Y-17306064D01*
X58567100Y-17665484D01*
X55169931Y-17665484D01*
X52122900Y-14618454D01*
X52122900Y-14485484D01*
X51974023Y-14126064D01*
X51698936Y-13850977D01*
X51339516Y-13702100D01*
X50950484Y-13702100D01*
X50591064Y-13850977D01*
X50315977Y-14126064D01*
X50167100Y-14485484D01*
X50167100Y-14874516D01*
X50315977Y-15233936D01*
X50591064Y-15509023D01*
X50950484Y-15657900D01*
X51083454Y-15657900D01*
X56924090Y-21498537D01*
X56965095Y-21559905D01*
X57208217Y-21722354D01*
X57422612Y-21765000D01*
X57422615Y-21765000D01*
X57494999Y-21779398D01*
X57567383Y-21765000D01*
X63197041Y-21765000D01*
X63291064Y-21859023D01*
X63650484Y-22007900D01*
X63783454Y-22007900D01*
X67924091Y-26148538D01*
X67965095Y-26209905D01*
X68208217Y-26372354D01*
X68422612Y-26415000D01*
X68422615Y-26415000D01*
X68494999Y-26429398D01*
X68567383Y-26415000D01*
X74520553Y-26415000D01*
X62130554Y-38805000D01*
X55932959Y-38805000D01*
X55838936Y-38710977D01*
X55479516Y-38562100D01*
X55090484Y-38562100D01*
X54731064Y-38710977D01*
X54455977Y-38986064D01*
X54307100Y-39345484D01*
X54307100Y-39734516D01*
X54455977Y-40093936D01*
X54731064Y-40369023D01*
X54749488Y-40376655D01*
X54401064Y-40520977D01*
X54307041Y-40615000D01*
X51981867Y-40615000D01*
X52122900Y-40274516D01*
X52122900Y-40141546D01*
X57799447Y-34465000D01*
X61927041Y-34465000D01*
X62021064Y-34559023D01*
X62380484Y-34707900D01*
X62769516Y-34707900D01*
X63128936Y-34559023D01*
X63404023Y-34283936D01*
X63552900Y-33924516D01*
X63552900Y-33535484D01*
X63404023Y-33176064D01*
X63128936Y-32900977D01*
X62769516Y-32752100D01*
X62380484Y-32752100D01*
X62021064Y-32900977D01*
X61927041Y-32995000D01*
X57567383Y-32995000D01*
X57494999Y-32980602D01*
X57422615Y-32995000D01*
X53989447Y-32995000D01*
X52225007Y-31230561D01*
X52225007Y-31097591D01*
X52076130Y-30738171D01*
X51801043Y-30463084D01*
X51441623Y-30314207D01*
X51052591Y-30314207D01*
X50693171Y-30463084D01*
X50418084Y-30738171D01*
X50269207Y-31097591D01*
X50269207Y-31486623D01*
X50418084Y-31846043D01*
X50693171Y-32121130D01*
X51052591Y-32270007D01*
X51185561Y-32270007D01*
X53114090Y-34198537D01*
X53155095Y-34259905D01*
X53398217Y-34422354D01*
X53612612Y-34465000D01*
X53612616Y-34465000D01*
X53685000Y-34479398D01*
X53757384Y-34465000D01*
X55720553Y-34465000D01*
X51083454Y-39102100D01*
X50950484Y-39102100D01*
X50591064Y-39250977D01*
X50315977Y-39526064D01*
X50167100Y-39885484D01*
X50167100Y-40274516D01*
X50308133Y-40615000D01*
X44867383Y-40615000D01*
X44794999Y-40600602D01*
X44722615Y-40615000D01*
X44722612Y-40615000D01*
X44508217Y-40657646D01*
X44265095Y-40820095D01*
X44224091Y-40881463D01*
X42193454Y-42912100D01*
X42060484Y-42912100D01*
X41701064Y-43060977D01*
X41425977Y-43336064D01*
X41277100Y-43695484D01*
X40300000Y-43695484D01*
X40300000Y-38357383D01*
X40314398Y-38284999D01*
X40300000Y-38212615D01*
X40300000Y-38212612D01*
X40257354Y-37998217D01*
X40168341Y-37865000D01*
X50747041Y-37865000D01*
X50841064Y-37959023D01*
X51200484Y-38107900D01*
X51589516Y-38107900D01*
X51948936Y-37959023D01*
X52224023Y-37683936D01*
X52372900Y-37324516D01*
X52372900Y-36935484D01*
X52224023Y-36576064D01*
X51948936Y-36300977D01*
X51589516Y-36152100D01*
X51200484Y-36152100D01*
X50841064Y-36300977D01*
X50747041Y-36395000D01*
X39944447Y-36395000D01*
X36503520Y-32954074D01*
X36503520Y-32638450D01*
X37217000Y-32638450D01*
X37217000Y-33417357D01*
X37391011Y-33837458D01*
X37712543Y-34158989D01*
X38132643Y-34333000D01*
X38911550Y-34333000D01*
X39197300Y-34047250D01*
X39197300Y-32352700D01*
X37502750Y-32352700D01*
X37217000Y-32638450D01*
X36503520Y-32638450D01*
X36503520Y-31262643D01*
X37217000Y-31262643D01*
X37217000Y-32041550D01*
X37502750Y-32327300D01*
X39197300Y-32327300D01*
X39197300Y-30632750D01*
X39222700Y-30632750D01*
X39222700Y-32327300D01*
X39242700Y-32327300D01*
X39242700Y-32352700D01*
X39222700Y-32352700D01*
X39222700Y-34047250D01*
X39508450Y-34333000D01*
X40287357Y-34333000D01*
X40707457Y-34158989D01*
X41028989Y-33837458D01*
X41091677Y-33686116D01*
X41170582Y-33738839D01*
X41603744Y-33825000D01*
X41896256Y-33825000D01*
X42329418Y-33738839D01*
X42408323Y-33686116D01*
X42471011Y-33837458D01*
X42792543Y-34158989D01*
X43212643Y-34333000D01*
X43991550Y-34333000D01*
X44277300Y-34047250D01*
X44277300Y-32352700D01*
X44257300Y-32352700D01*
X44257300Y-32327300D01*
X44277300Y-32327300D01*
X44277300Y-30632750D01*
X44302700Y-30632750D01*
X44302700Y-32327300D01*
X44322700Y-32327300D01*
X44322700Y-32352700D01*
X44302700Y-32352700D01*
X44302700Y-34047250D01*
X44588450Y-34333000D01*
X45367357Y-34333000D01*
X45787457Y-34158989D01*
X46108989Y-33837458D01*
X46171677Y-33686116D01*
X46250582Y-33738839D01*
X46683744Y-33825000D01*
X46976256Y-33825000D01*
X47409418Y-33738839D01*
X47900625Y-33410625D01*
X48228839Y-32919418D01*
X48344092Y-32340000D01*
X48228839Y-31760582D01*
X47900625Y-31269375D01*
X47409418Y-30941161D01*
X46976256Y-30855000D01*
X46683744Y-30855000D01*
X46250582Y-30941161D01*
X46171677Y-30993884D01*
X46108989Y-30842542D01*
X45787457Y-30521011D01*
X45367357Y-30347000D01*
X44588450Y-30347000D01*
X44302700Y-30632750D01*
X44277300Y-30632750D01*
X43991550Y-30347000D01*
X43212643Y-30347000D01*
X42792543Y-30521011D01*
X42471011Y-30842542D01*
X42408323Y-30993884D01*
X42329418Y-30941161D01*
X41896256Y-30855000D01*
X41603744Y-30855000D01*
X41170582Y-30941161D01*
X41091677Y-30993884D01*
X41028989Y-30842542D01*
X40707457Y-30521011D01*
X40287357Y-30347000D01*
X39508450Y-30347000D01*
X39222700Y-30632750D01*
X39197300Y-30632750D01*
X38911550Y-30347000D01*
X38132643Y-30347000D01*
X37712543Y-30521011D01*
X37391011Y-30842542D01*
X37217000Y-31262643D01*
X36503520Y-31262643D01*
X36503520Y-30930117D01*
X36517918Y-30857733D01*
X36503520Y-30785349D01*
X36503520Y-30785345D01*
X36460874Y-30570950D01*
X36298425Y-30327828D01*
X36261487Y-30303147D01*
X36261487Y-30178284D01*
X36226990Y-30095000D01*
X38517616Y-30095000D01*
X38590000Y-30109398D01*
X38662384Y-30095000D01*
X38662388Y-30095000D01*
X38876783Y-30052354D01*
X39119905Y-29889905D01*
X39160911Y-29828535D01*
X39224446Y-29765000D01*
X47307616Y-29765000D01*
X47380000Y-29779398D01*
X47452384Y-29765000D01*
X47452388Y-29765000D01*
X47666783Y-29722354D01*
X47909905Y-29559905D01*
X47950911Y-29498535D01*
X49001548Y-28447899D01*
X51009717Y-28447899D01*
X51082101Y-28462297D01*
X51154485Y-28447899D01*
X51154489Y-28447899D01*
X51368884Y-28405253D01*
X51454719Y-28347900D01*
X51619516Y-28347900D01*
X51978936Y-28199023D01*
X52254023Y-27923936D01*
X52402900Y-27564516D01*
X52402900Y-27175484D01*
X52254023Y-26816064D01*
X51978936Y-26540977D01*
X51619516Y-26392100D01*
X51230484Y-26392100D01*
X50871064Y-26540977D01*
X50595977Y-26816064D01*
X50528943Y-26977899D01*
X48769484Y-26977899D01*
X48697100Y-26963501D01*
X48624716Y-26977899D01*
X48624713Y-26977899D01*
X48410318Y-27020545D01*
X48167196Y-27182994D01*
X48126191Y-27244362D01*
X47475061Y-27895493D01*
X47409023Y-27736064D01*
X47133936Y-27460977D01*
X46774516Y-27312100D01*
X46467968Y-27312100D01*
X46467968Y-27125484D01*
X46319091Y-26766064D01*
X46044004Y-26490977D01*
X45684584Y-26342100D01*
X45295552Y-26342100D01*
X44936132Y-26490977D01*
X44888278Y-26538831D01*
X43755000Y-25405554D01*
X43755000Y-23395484D01*
X44872100Y-23395484D01*
X44872100Y-23784516D01*
X45020977Y-24143936D01*
X45296064Y-24419023D01*
X45655484Y-24567900D01*
X46044516Y-24567900D01*
X46403936Y-24419023D01*
X46579619Y-24243340D01*
X46735484Y-24307902D01*
X47124516Y-24307902D01*
X47483936Y-24159025D01*
X47759023Y-23883938D01*
X47907900Y-23524518D01*
X47907900Y-23135486D01*
X47859472Y-23018570D01*
X47900157Y-22977885D01*
X48049034Y-22618465D01*
X48049034Y-22343925D01*
X48299023Y-22093936D01*
X48447900Y-21734516D01*
X48447900Y-21345484D01*
X48313788Y-21021711D01*
X48416846Y-20979023D01*
X48691933Y-20703936D01*
X48840810Y-20344516D01*
X48840810Y-19955484D01*
X48758950Y-19757857D01*
X48876846Y-19709023D01*
X49151933Y-19433936D01*
X49300810Y-19074516D01*
X49300810Y-18685484D01*
X49151933Y-18326064D01*
X49057910Y-18232041D01*
X49057910Y-13971536D01*
X53253962Y-9775484D01*
X57427100Y-9775484D01*
X57427100Y-10164516D01*
X57575977Y-10523936D01*
X57851064Y-10799023D01*
X58210484Y-10947900D01*
X58599516Y-10947900D01*
X58958936Y-10799023D01*
X59052959Y-10705000D01*
X62410554Y-10705000D01*
X63677100Y-11971547D01*
X63677100Y-12104516D01*
X63825977Y-12463936D01*
X64101064Y-12739023D01*
X64460484Y-12887900D01*
X64849516Y-12887900D01*
X65208936Y-12739023D01*
X65484023Y-12463936D01*
X65632900Y-12104516D01*
X65632900Y-11715484D01*
X65484023Y-11356064D01*
X65208936Y-11080977D01*
X64849516Y-10932100D01*
X64716547Y-10932100D01*
X63285911Y-9501465D01*
X63244905Y-9440095D01*
X63001783Y-9277646D01*
X62787388Y-9235000D01*
X62787384Y-9235000D01*
X62715000Y-9220602D01*
X62642616Y-9235000D01*
X59052959Y-9235000D01*
X58958936Y-9140977D01*
X58599516Y-8992100D01*
X58210484Y-8992100D01*
X57851064Y-9140977D01*
X57575977Y-9416064D01*
X57427100Y-9775484D01*
X53253962Y-9775484D01*
X54073962Y-8955484D01*
X72997100Y-8955484D01*
X72997100Y-9344516D01*
X73145977Y-9703936D01*
X73421064Y-9979023D01*
X73780484Y-10127900D01*
X74169516Y-10127900D01*
X74528936Y-9979023D01*
X74622959Y-9885000D01*
X77600554Y-9885000D01*
X88267100Y-20551547D01*
X88267100Y-20684516D01*
X88415977Y-21043936D01*
X88691064Y-21319023D01*
X89050484Y-21467900D01*
X89439516Y-21467900D01*
X89798936Y-21319023D01*
X90074023Y-21043936D01*
X90222900Y-20684516D01*
X90222900Y-20295484D01*
X90074023Y-19936064D01*
X89798936Y-19660977D01*
X89439516Y-19512100D01*
X89306547Y-19512100D01*
X84934511Y-15140064D01*
X88304816Y-15140064D01*
X88488396Y-15323645D01*
X88415977Y-15396064D01*
X88267100Y-15755484D01*
X88267100Y-16144516D01*
X88415977Y-16503936D01*
X88691064Y-16779023D01*
X89050484Y-16927900D01*
X89183454Y-16927900D01*
X92713297Y-20457744D01*
X92515977Y-20655064D01*
X92367100Y-21014484D01*
X92367100Y-21403516D01*
X92515977Y-21762936D01*
X92791064Y-22038023D01*
X92971991Y-22112966D01*
X92971990Y-30194563D01*
X89473454Y-33693100D01*
X89340484Y-33693100D01*
X88981064Y-33841977D01*
X88705977Y-34117064D01*
X88557100Y-34476484D01*
X88557100Y-34865516D01*
X88705977Y-35224936D01*
X88981064Y-35500023D01*
X89340484Y-35648900D01*
X89729516Y-35648900D01*
X90088936Y-35500023D01*
X90364023Y-35224936D01*
X90512900Y-34865516D01*
X90512900Y-34732546D01*
X93372001Y-31873446D01*
X93372001Y-36183552D01*
X92993454Y-36562100D01*
X92860484Y-36562100D01*
X92501064Y-36710977D01*
X92225977Y-36986064D01*
X92077100Y-37345484D01*
X92077100Y-37734516D01*
X92225977Y-38093936D01*
X92501064Y-38369023D01*
X92860484Y-38517900D01*
X93249516Y-38517900D01*
X93608936Y-38369023D01*
X93884023Y-38093936D01*
X94032900Y-37734516D01*
X94032900Y-37601546D01*
X94575537Y-37058910D01*
X94636905Y-37017905D01*
X94799354Y-36774783D01*
X94842000Y-36560388D01*
X94856399Y-36488000D01*
X94842000Y-36415612D01*
X94842000Y-20884383D01*
X94856398Y-20811999D01*
X94842000Y-20739613D01*
X94842000Y-20739612D01*
X94816673Y-20612286D01*
X94954122Y-20474837D01*
X95102999Y-20115417D01*
X95102999Y-19726385D01*
X94954122Y-19366965D01*
X94679035Y-19091878D01*
X94319615Y-18943001D01*
X94186646Y-18943001D01*
X89180173Y-13936529D01*
X89139167Y-13875159D01*
X88896045Y-13712710D01*
X88681650Y-13670064D01*
X88681646Y-13670064D01*
X88609262Y-13655666D01*
X88536878Y-13670064D01*
X84848959Y-13670064D01*
X84754936Y-13576041D01*
X84395516Y-13427164D01*
X84006484Y-13427164D01*
X83647064Y-13576041D01*
X83508776Y-13714329D01*
X79699931Y-9905484D01*
X86337100Y-9905484D01*
X86337100Y-10294516D01*
X86485977Y-10653936D01*
X86761064Y-10929023D01*
X86951247Y-11007799D01*
X86965545Y-11079682D01*
X87127994Y-11322804D01*
X87189364Y-11363810D01*
X88064090Y-12238537D01*
X88105095Y-12299905D01*
X88348217Y-12462354D01*
X88562612Y-12505000D01*
X88562615Y-12505000D01*
X88634999Y-12519398D01*
X88707383Y-12505000D01*
X92397041Y-12505000D01*
X92491064Y-12599023D01*
X92850484Y-12747900D01*
X93239516Y-12747900D01*
X93598936Y-12599023D01*
X93874023Y-12323936D01*
X94022900Y-11964516D01*
X94022900Y-11575484D01*
X93874023Y-11216064D01*
X93598936Y-10940977D01*
X93239516Y-10792100D01*
X92850484Y-10792100D01*
X92491064Y-10940977D01*
X92397041Y-11035000D01*
X88939447Y-11035000D01*
X88397350Y-10492904D01*
X88407297Y-10442898D01*
X88392899Y-10370512D01*
X88392899Y-10370511D01*
X88350253Y-10156116D01*
X88292900Y-10070281D01*
X88292900Y-9905484D01*
X88144023Y-9546064D01*
X87868936Y-9270977D01*
X87509516Y-9122100D01*
X87120484Y-9122100D01*
X86761064Y-9270977D01*
X86485977Y-9546064D01*
X86337100Y-9905484D01*
X79699931Y-9905484D01*
X78475911Y-8681465D01*
X78434905Y-8620095D01*
X78191783Y-8457646D01*
X77977388Y-8415000D01*
X77977384Y-8415000D01*
X77905000Y-8400602D01*
X77832616Y-8415000D01*
X74622959Y-8415000D01*
X74528936Y-8320977D01*
X74169516Y-8172100D01*
X73780484Y-8172100D01*
X73421064Y-8320977D01*
X73145977Y-8596064D01*
X72997100Y-8955484D01*
X54073962Y-8955484D01*
X56464427Y-6565020D01*
X83812596Y-6565020D01*
X83884980Y-6579418D01*
X83957364Y-6565020D01*
X83957368Y-6565020D01*
X84171763Y-6522374D01*
X84414885Y-6359925D01*
X84455891Y-6298555D01*
X84846546Y-5907900D01*
X84979516Y-5907900D01*
X85338936Y-5759023D01*
X85614023Y-5483936D01*
X85762900Y-5124516D01*
X85762900Y-4959495D01*
X91578466Y-4959495D01*
X91711409Y-5445050D01*
X92704469Y-5897401D01*
X93795045Y-5935292D01*
X94817106Y-5552952D01*
X94978591Y-5445050D01*
X95111534Y-4959495D01*
X93345000Y-3192961D01*
X91578466Y-4959495D01*
X85762900Y-4959495D01*
X85762900Y-4735484D01*
X85614023Y-4376064D01*
X85338936Y-4100977D01*
X84979516Y-3952100D01*
X84590484Y-3952100D01*
X84231064Y-4100977D01*
X83955977Y-4376064D01*
X83807100Y-4735484D01*
X83807100Y-4868454D01*
X83580534Y-5095020D01*
X78452900Y-5095020D01*
X78452900Y-4775484D01*
X78304023Y-4416064D01*
X78028936Y-4140977D01*
X77669516Y-3992100D01*
X77280484Y-3992100D01*
X76921064Y-4140977D01*
X76645977Y-4416064D01*
X76530434Y-4695009D01*
X70512900Y-4695009D01*
X70512900Y-4435484D01*
X70364023Y-4076064D01*
X70088936Y-3800977D01*
X69729516Y-3652100D01*
X69340484Y-3652100D01*
X68981064Y-3800977D01*
X68705977Y-4076064D01*
X68615291Y-4295000D01*
X62402900Y-4295000D01*
X62402900Y-4175484D01*
X62254023Y-3816064D01*
X62063004Y-3625045D01*
X90584708Y-3625045D01*
X90967048Y-4647106D01*
X91074950Y-4808591D01*
X91560505Y-4941534D01*
X93327039Y-3175000D01*
X93362961Y-3175000D01*
X95129495Y-4941534D01*
X95615050Y-4808591D01*
X96067401Y-3815531D01*
X96105292Y-2724955D01*
X95722952Y-1702894D01*
X95615050Y-1541409D01*
X95129495Y-1408466D01*
X93362961Y-3175000D01*
X93327039Y-3175000D01*
X91560505Y-1408466D01*
X91074950Y-1541409D01*
X90622599Y-2534469D01*
X90584708Y-3625045D01*
X62063004Y-3625045D01*
X61978936Y-3540977D01*
X61619516Y-3392100D01*
X61230484Y-3392100D01*
X60871064Y-3540977D01*
X60777041Y-3635000D01*
X55282383Y-3635000D01*
X55209999Y-3620602D01*
X55137615Y-3635000D01*
X55137612Y-3635000D01*
X55083686Y-3645727D01*
X54916829Y-3478870D01*
X54557409Y-3329993D01*
X54168377Y-3329993D01*
X53808957Y-3478870D01*
X53533870Y-3753957D01*
X53384993Y-4113377D01*
X53384993Y-4246346D01*
X48160000Y-9471340D01*
X48160000Y-6017959D01*
X48254023Y-5923936D01*
X48402900Y-5564516D01*
X48402900Y-5175484D01*
X48254023Y-4816064D01*
X47978936Y-4540977D01*
X47619516Y-4392100D01*
X47230484Y-4392100D01*
X46871064Y-4540977D01*
X46595977Y-4816064D01*
X46447100Y-5175484D01*
X46447100Y-5564516D01*
X46595977Y-5923936D01*
X46690000Y-6017959D01*
X46690001Y-9990552D01*
X45381465Y-11299089D01*
X45320095Y-11340095D01*
X45157646Y-11583218D01*
X45115000Y-11797613D01*
X45115000Y-11797616D01*
X45100602Y-11870000D01*
X45115000Y-11942384D01*
X45115001Y-22942040D01*
X45020977Y-23036064D01*
X44872100Y-23395484D01*
X43755000Y-23395484D01*
X43755000Y-22802384D01*
X43769398Y-22730000D01*
X43755000Y-22657616D01*
X43755000Y-22657612D01*
X43712354Y-22443217D01*
X43549905Y-22200095D01*
X43488538Y-22159091D01*
X43031203Y-21701756D01*
X43134023Y-21598936D01*
X43282900Y-21239516D01*
X43282900Y-20850484D01*
X43134023Y-20491064D01*
X42858936Y-20215977D01*
X42499516Y-20067100D01*
X42366546Y-20067100D01*
X42245000Y-19945554D01*
X42245000Y-18627384D01*
X42259398Y-18555000D01*
X42245000Y-18482616D01*
X42245000Y-18482612D01*
X42202354Y-18268217D01*
X42039905Y-18025095D01*
X41978537Y-17984090D01*
X41899447Y-17905000D01*
X41978538Y-17825909D01*
X42039905Y-17784905D01*
X42202354Y-17541783D01*
X42245000Y-17327388D01*
X42245000Y-17327384D01*
X42259398Y-17255000D01*
X42245000Y-17182616D01*
X42245000Y-12432388D01*
X42259399Y-12360000D01*
X42227378Y-12199023D01*
X42202354Y-12073217D01*
X42039905Y-11830095D01*
X41978538Y-11789091D01*
X35400911Y-5211465D01*
X35359905Y-5150095D01*
X35116783Y-4987646D01*
X34902388Y-4945000D01*
X34902384Y-4945000D01*
X34830000Y-4930602D01*
X34757616Y-4945000D01*
X27914447Y-4945000D01*
X27149463Y-4180017D01*
X27433839Y-3754418D01*
X27549092Y-3175000D01*
X27433839Y-2595582D01*
X27105625Y-2104375D01*
X26614418Y-1776161D01*
X26181256Y-1690000D01*
X25888744Y-1690000D01*
X25455582Y-1776161D01*
X24964375Y-2104375D01*
X24765000Y-2402761D01*
X24565625Y-2104375D01*
X24074418Y-1776161D01*
X23641256Y-1690000D01*
X23348744Y-1690000D01*
X22915582Y-1776161D01*
X22424375Y-2104375D01*
X22225000Y-2402761D01*
X22025625Y-2104375D01*
X21534418Y-1776161D01*
X21101256Y-1690000D01*
X20808744Y-1690000D01*
X20375582Y-1776161D01*
X19884375Y-2104375D01*
X19685000Y-2402761D01*
X19485625Y-2104375D01*
X18994418Y-1776161D01*
X18561256Y-1690000D01*
X18268744Y-1690000D01*
X17835582Y-1776161D01*
X17344375Y-2104375D01*
X17145000Y-2402761D01*
X16945625Y-2104375D01*
X16454418Y-1776161D01*
X16021256Y-1690000D01*
X15728744Y-1690000D01*
X15295582Y-1776161D01*
X15216677Y-1828884D01*
X15153989Y-1677542D01*
X14832457Y-1356011D01*
X14412357Y-1182000D01*
X13633450Y-1182000D01*
X13347700Y-1467750D01*
X13347700Y-3162300D01*
X13367700Y-3162300D01*
X13367700Y-3187700D01*
X13347700Y-3187700D01*
X13347700Y-4882250D01*
X13633450Y-5168000D01*
X14412357Y-5168000D01*
X14832457Y-4993989D01*
X15153989Y-4672458D01*
X15170243Y-4633218D01*
X15265251Y-4775408D01*
X15265254Y-4775411D01*
X15309048Y-4840953D01*
X15374590Y-4884747D01*
X22800253Y-12310411D01*
X22844047Y-12375953D01*
X22909589Y-12419747D01*
X22909591Y-12419749D01*
X22973354Y-12462354D01*
X23103708Y-12549454D01*
X23332684Y-12595000D01*
X23332688Y-12595000D01*
X23409999Y-12610378D01*
X23487310Y-12595000D01*
X29359843Y-12595000D01*
X29450000Y-12685157D01*
X29450000Y-13097619D01*
X29643346Y-13564397D01*
X30000603Y-13921654D01*
X30467381Y-14115000D01*
X30972619Y-14115000D01*
X31439397Y-13921654D01*
X31731051Y-13630000D01*
X32738949Y-13630000D01*
X33010603Y-13901654D01*
X33477381Y-14095000D01*
X33982619Y-14095000D01*
X34449397Y-13901654D01*
X34741051Y-13610000D01*
X35648949Y-13610000D01*
X35950603Y-13911654D01*
X36417381Y-14105000D01*
X36922619Y-14105000D01*
X37389397Y-13911654D01*
X37746654Y-13554397D01*
X37883321Y-13224455D01*
X37945001Y-13250004D01*
X37945000Y-15202041D01*
X37830977Y-15316064D01*
X37682100Y-15675484D01*
X37682100Y-16064516D01*
X37830977Y-16423936D01*
X38106064Y-16699023D01*
X38465484Y-16847900D01*
X38854516Y-16847900D01*
X39213936Y-16699023D01*
X39489023Y-16423936D01*
X39637900Y-16064516D01*
X39637900Y-15675484D01*
X39489023Y-15316064D01*
X39415000Y-15242041D01*
X39415000Y-13132724D01*
X39765484Y-13277900D01*
X40154516Y-13277900D01*
X40513936Y-13129023D01*
X40775001Y-12867958D01*
X40775000Y-16927100D01*
X40665484Y-16927100D01*
X40306064Y-17075977D01*
X40030977Y-17351064D01*
X39882100Y-17710484D01*
X39882100Y-18099516D01*
X40030977Y-18458936D01*
X40306064Y-18734023D01*
X40665484Y-18882900D01*
X40775001Y-18882900D01*
X40775000Y-19445554D01*
X39078000Y-17748554D01*
X39036994Y-17687184D01*
X38793872Y-17524735D01*
X38579477Y-17482089D01*
X38579473Y-17482089D01*
X38507089Y-17467691D01*
X38434705Y-17482089D01*
X36900366Y-17482089D01*
X36827978Y-17467690D01*
X36755590Y-17482089D01*
X36541195Y-17524735D01*
X36298073Y-17687184D01*
X36257068Y-17748552D01*
X35381463Y-18624158D01*
X35320096Y-18665162D01*
X35157646Y-18908284D01*
X35137506Y-19009535D01*
X35020977Y-19126064D01*
X34872100Y-19485484D01*
X34872100Y-19874516D01*
X35020977Y-20233936D01*
X35296064Y-20509023D01*
X35655484Y-20657900D01*
X36044516Y-20657900D01*
X36403936Y-20509023D01*
X36450123Y-20462836D01*
X36655484Y-20547900D01*
X37044516Y-20547900D01*
X37403936Y-20399023D01*
X37565059Y-20237900D01*
X37688454Y-20237900D01*
X41065000Y-23614447D01*
X41065001Y-26815552D01*
X40575554Y-27305000D01*
X39073169Y-27305000D01*
X39000785Y-27290602D01*
X38928401Y-27305000D01*
X38928398Y-27305000D01*
X38714003Y-27347646D01*
X38597900Y-27425224D01*
X38597900Y-27395484D01*
X38449023Y-27036064D01*
X38173936Y-26760977D01*
X37964852Y-26674371D01*
X37955253Y-26626116D01*
X37792804Y-26382994D01*
X37731437Y-26341990D01*
X34977900Y-23588454D01*
X34977900Y-23455484D01*
X34829023Y-23096064D01*
X34553936Y-22820977D01*
X34194516Y-22672100D01*
X33805484Y-22672100D01*
X33446064Y-22820977D01*
X33170977Y-23096064D01*
X33022100Y-23455484D01*
X33022100Y-23812100D01*
X32915484Y-23812100D01*
X32556064Y-23960977D01*
X32280977Y-24236064D01*
X32132100Y-24595484D01*
X32132100Y-24942100D01*
X32042680Y-24942100D01*
X31747899Y-25064203D01*
X31747899Y-25005282D01*
X31762297Y-24932898D01*
X31747899Y-24860512D01*
X31747899Y-24860511D01*
X31705253Y-24646116D01*
X31542804Y-24402994D01*
X31481437Y-24361990D01*
X31427900Y-24308453D01*
X31427900Y-24175484D01*
X31279023Y-23816064D01*
X31003936Y-23540977D01*
X30644516Y-23392100D01*
X30425000Y-23392100D01*
X30425000Y-22124446D01*
X32351547Y-20197900D01*
X32484516Y-20197900D01*
X32843936Y-20049023D01*
X33119023Y-19773936D01*
X33267900Y-19414516D01*
X33267900Y-19025484D01*
X33119023Y-18666064D01*
X32843936Y-18390977D01*
X32484516Y-18242100D01*
X32095484Y-18242100D01*
X31736064Y-18390977D01*
X31460977Y-18666064D01*
X31312100Y-19025484D01*
X31312100Y-19158453D01*
X30463553Y-20007000D01*
X30459023Y-19996064D01*
X30183936Y-19720977D01*
X29824516Y-19572100D01*
X29435484Y-19572100D01*
X29076064Y-19720977D01*
X28800977Y-19996064D01*
X28652100Y-20355484D01*
X28652100Y-20488453D01*
X27971465Y-21169089D01*
X27910095Y-21210095D01*
X27747646Y-21453218D01*
X27705000Y-21667613D01*
X27705000Y-21667616D01*
X27690602Y-21740000D01*
X27705000Y-21812384D01*
X27705001Y-26282484D01*
X27629905Y-26170095D01*
X27568538Y-26129091D01*
X27077900Y-25638454D01*
X27077900Y-25505484D01*
X26929023Y-25146064D01*
X26653936Y-24870977D01*
X26294516Y-24722100D01*
X25905484Y-24722100D01*
X25546064Y-24870977D01*
X25270977Y-25146064D01*
X25122100Y-25505484D01*
X25122100Y-25894516D01*
X25270977Y-26253936D01*
X25546064Y-26529023D01*
X25905484Y-26677900D01*
X26038454Y-26677900D01*
X26365000Y-27004447D01*
X26365001Y-27374940D01*
X26274727Y-27465214D01*
X19535865Y-20726352D01*
X19602900Y-20564516D01*
X19602900Y-20175484D01*
X19454023Y-19816064D01*
X19260000Y-19622041D01*
X19260000Y-12289709D01*
X19478936Y-12199023D01*
X19754023Y-11923936D01*
X19902900Y-11564516D01*
X19902900Y-11175484D01*
X19754023Y-10816064D01*
X19478936Y-10540977D01*
X19119516Y-10392100D01*
X18730484Y-10392100D01*
X18371064Y-10540977D01*
X18095977Y-10816064D01*
X17947100Y-11175484D01*
X17947100Y-11311925D01*
X17832646Y-11483218D01*
X17790000Y-11697613D01*
X17790000Y-11697616D01*
X17775602Y-11770000D01*
X17790000Y-11842384D01*
X17790001Y-19830491D01*
X17647100Y-20175484D01*
X17647100Y-20564516D01*
X17795977Y-20923936D01*
X17912506Y-21040465D01*
X17932646Y-21141716D01*
X18095096Y-21384838D01*
X18156463Y-21425842D01*
X26469158Y-29738538D01*
X26510162Y-29799905D01*
X26753284Y-29962354D01*
X26967679Y-30005000D01*
X26967683Y-30005000D01*
X27040067Y-30019398D01*
X27112451Y-30005000D01*
X30607616Y-30005000D01*
X30680000Y-30019398D01*
X30752384Y-30005000D01*
X30752388Y-30005000D01*
X30966783Y-29962354D01*
X31123109Y-29857900D01*
X31264516Y-29857900D01*
X31623936Y-29709023D01*
X31899023Y-29433936D01*
X32047900Y-29074516D01*
X32047900Y-28685484D01*
X31899023Y-28326064D01*
X31623936Y-28050977D01*
X31264516Y-27902100D01*
X30875484Y-27902100D01*
X30540412Y-28040892D01*
X30519023Y-27989253D01*
X30425000Y-27895230D01*
X30425000Y-26466010D01*
X30482994Y-26552804D01*
X30544364Y-26593810D01*
X32502100Y-28551547D01*
X32502100Y-28674516D01*
X32650977Y-29033936D01*
X32926064Y-29309023D01*
X33285484Y-29457900D01*
X33674516Y-29457900D01*
X34033936Y-29309023D01*
X34309023Y-29033936D01*
X34309803Y-29032054D01*
X34794616Y-29516867D01*
X34729651Y-29543777D01*
X34613122Y-29660306D01*
X34511871Y-29680446D01*
X34268749Y-29842895D01*
X34227743Y-29904265D01*
X34077008Y-30055000D01*
X19047388Y-30055000D01*
X18975000Y-30040601D01*
X18902612Y-30055000D01*
X18688217Y-30097646D01*
X18445095Y-30260095D01*
X18404090Y-30321463D01*
X17023454Y-31702100D01*
X16890484Y-31702100D01*
X16531064Y-31850977D01*
X16255977Y-32126064D01*
X16107100Y-32485484D01*
X16107100Y-32652654D01*
X15622346Y-32167900D01*
X15779516Y-32167900D01*
X16138936Y-32019023D01*
X16414023Y-31743936D01*
X16562900Y-31384516D01*
X16562900Y-31251546D01*
X20335377Y-27479070D01*
X20583936Y-27376113D01*
X20859023Y-27101026D01*
X21007900Y-26741606D01*
X21007900Y-26352574D01*
X20859023Y-25993154D01*
X20583936Y-25718067D01*
X20224516Y-25569190D01*
X19835484Y-25569190D01*
X19476064Y-25718067D01*
X19200977Y-25993154D01*
X19102900Y-26229932D01*
X19102900Y-25915484D01*
X18954023Y-25556064D01*
X18678936Y-25280977D01*
X18319516Y-25132100D01*
X18186547Y-25132100D01*
X11240000Y-18185554D01*
X11240000Y-11517959D01*
X11334023Y-11423936D01*
X11482900Y-11064516D01*
X11482900Y-10675484D01*
X11334023Y-10316064D01*
X11058936Y-10040977D01*
X10699516Y-9892100D01*
X10310484Y-9892100D01*
X9951064Y-10040977D01*
X9675977Y-10316064D01*
X9527100Y-10675484D01*
X9527100Y-11064516D01*
X9675977Y-11423936D01*
X9770000Y-11517959D01*
X9770001Y-18417611D01*
X9755602Y-18490000D01*
X9812646Y-18776782D01*
X9934091Y-18958537D01*
X9975096Y-19019905D01*
X10036463Y-19060909D01*
X17147100Y-26171547D01*
X17147100Y-26304516D01*
X17295977Y-26663936D01*
X17571064Y-26939023D01*
X17930484Y-27087900D01*
X18319516Y-27087900D01*
X18678936Y-26939023D01*
X18954023Y-26663936D01*
X19052100Y-26427158D01*
X19052100Y-26683453D01*
X15523454Y-30212100D01*
X15390484Y-30212100D01*
X15031064Y-30360977D01*
X14755977Y-30636064D01*
X14607100Y-30995484D01*
X14607100Y-31152654D01*
X12340000Y-28885554D01*
X12340000Y-28747959D01*
X12434023Y-28653936D01*
X12582900Y-28294516D01*
X12582900Y-27905484D01*
X12434023Y-27546064D01*
X12158936Y-27270977D01*
X11799516Y-27122100D01*
X11410484Y-27122100D01*
X11051064Y-27270977D01*
X10775977Y-27546064D01*
X10627100Y-27905484D01*
X10627100Y-28294516D01*
X10775977Y-28653936D01*
X10870000Y-28747959D01*
X10870000Y-29117615D01*
X10855602Y-29190000D01*
X10865821Y-29241374D01*
X10212900Y-28588454D01*
X10212900Y-28455484D01*
X10064023Y-28096064D01*
X9788936Y-27820977D01*
X9429516Y-27672100D01*
X9040484Y-27672100D01*
X8681064Y-27820977D01*
X8540000Y-27962041D01*
X8540000Y-19897959D01*
X8634023Y-19803936D01*
X8782900Y-19444516D01*
X8782900Y-19055484D01*
X8634023Y-18696064D01*
X8358936Y-18420977D01*
X7999516Y-18272100D01*
X7610484Y-18272100D01*
X7251064Y-18420977D01*
X6975977Y-18696064D01*
X6827100Y-19055484D01*
X6827100Y-19444516D01*
X6975977Y-19803936D01*
X7070001Y-19897960D01*
X7070000Y-30362041D01*
X6828936Y-30120977D01*
X6469516Y-29972100D01*
X6080484Y-29972100D01*
X5721064Y-30120977D01*
X5445977Y-30396064D01*
X5297100Y-30755484D01*
X5220000Y-30755484D01*
X5220000Y-24947959D01*
X5314023Y-24853936D01*
X5462900Y-24494516D01*
X5462900Y-24105484D01*
X5314023Y-23746064D01*
X5038936Y-23470977D01*
X4679516Y-23322100D01*
X4290484Y-23322100D01*
X3931064Y-23470977D01*
X3655977Y-23746064D01*
X3507100Y-24105484D01*
X710000Y-24105484D01*
X710000Y-4959495D01*
X1408466Y-4959495D01*
X1541409Y-5445050D01*
X2534469Y-5897401D01*
X3625045Y-5935292D01*
X4647106Y-5552952D01*
X4808591Y-5445050D01*
X4941534Y-4959495D01*
X3175000Y-3192961D01*
X1408466Y-4959495D01*
X710000Y-4959495D01*
X710000Y-4414412D01*
X797048Y-4647106D01*
X904950Y-4808591D01*
X1390505Y-4941534D01*
X3157039Y-3175000D01*
X3192961Y-3175000D01*
X4959495Y-4941534D01*
X5445050Y-4808591D01*
X5897401Y-3815531D01*
X5909286Y-3473450D01*
X11342000Y-3473450D01*
X11342000Y-4252357D01*
X11516011Y-4672458D01*
X11837543Y-4993989D01*
X12257643Y-5168000D01*
X13036550Y-5168000D01*
X13322300Y-4882250D01*
X13322300Y-3187700D01*
X11627750Y-3187700D01*
X11342000Y-3473450D01*
X5909286Y-3473450D01*
X5935292Y-2724955D01*
X5700623Y-2097643D01*
X11342000Y-2097643D01*
X11342000Y-2876550D01*
X11627750Y-3162300D01*
X13322300Y-3162300D01*
X13322300Y-1467750D01*
X13036550Y-1182000D01*
X12257643Y-1182000D01*
X11837543Y-1356011D01*
X11516011Y-1677542D01*
X11342000Y-2097643D01*
X5700623Y-2097643D01*
X5552952Y-1702894D01*
X5445050Y-1541409D01*
X4959495Y-1408466D01*
X3192961Y-3175000D01*
X3157039Y-3175000D01*
X1390505Y-1408466D01*
X904950Y-1541409D01*
X710000Y-1969389D01*
X710000Y-710000D01*
X1935588Y-710000D01*
X1702894Y-797048D01*
X1702894Y-797048D01*
G37*
X1702894Y-797048D02*
X1541409Y-904950D01*
X1408466Y-1390505D01*
X3175000Y-3157039D01*
X4941534Y-1390505D01*
X4808591Y-904950D01*
X4380611Y-710000D01*
X92105588Y-710000D01*
X91872894Y-797048D01*
X91711409Y-904950D01*
X91578466Y-1390505D01*
X93345000Y-3157039D01*
X95111534Y-1390505D01*
X94978591Y-904950D01*
X94550611Y-710000D01*
X96445000Y-710000D01*
X96445001Y-78445908D01*
X94320910Y-80570000D01*
X2834091Y-80570000D01*
X710000Y-78445910D01*
X710000Y-55759495D01*
X1408466Y-55759495D01*
X1541409Y-56245050D01*
X2534469Y-56697401D01*
X3625045Y-56735292D01*
X4647106Y-56352952D01*
X4808591Y-56245050D01*
X4941534Y-55759495D01*
X3175000Y-53992961D01*
X1408466Y-55759495D01*
X710000Y-55759495D01*
X710000Y-55214412D01*
X797048Y-55447106D01*
X904950Y-55608591D01*
X1390505Y-55741534D01*
X3157039Y-53975000D01*
X3192961Y-53975000D01*
X4959495Y-55741534D01*
X5445050Y-55608591D01*
X5897401Y-54615531D01*
X5935292Y-53524955D01*
X5552952Y-52502894D01*
X5445050Y-52341409D01*
X4959495Y-52208466D01*
X3192961Y-53975000D01*
X3157039Y-53975000D01*
X1390505Y-52208466D01*
X904950Y-52341409D01*
X710000Y-52769389D01*
X710000Y-52190505D01*
X1408466Y-52190505D01*
X3175000Y-53957039D01*
X4941534Y-52190505D01*
X4808591Y-51704950D01*
X3815531Y-51252599D01*
X2724955Y-51214708D01*
X1702894Y-51597048D01*
X1541409Y-51704950D01*
X1408466Y-52190505D01*
X710000Y-52190505D01*
X710000Y-43285484D01*
X2187100Y-43285484D01*
X2187100Y-43674516D01*
X2335977Y-44033936D01*
X2611064Y-44309023D01*
X2970484Y-44457900D01*
X3103454Y-44457900D01*
X7805291Y-49159738D01*
X7785100Y-49208484D01*
X7785100Y-49597516D01*
X7933977Y-49956936D01*
X8209064Y-50232023D01*
X8568484Y-50380900D01*
X8957516Y-50380900D01*
X9316936Y-50232023D01*
X9592023Y-49956936D01*
X9740900Y-49597516D01*
X9740900Y-49208484D01*
X9592023Y-48849064D01*
X9316936Y-48573977D01*
X9307621Y-48570118D01*
X9292905Y-48548095D01*
X9231538Y-48507091D01*
X4142900Y-43418454D01*
X4142900Y-43285484D01*
X3994023Y-42926064D01*
X3718936Y-42650977D01*
X3359516Y-42502100D01*
X2970484Y-42502100D01*
X2611064Y-42650977D01*
X2335977Y-42926064D01*
X2187100Y-43285484D01*
X710000Y-43285484D01*
X710000Y-24105484D01*
X3507100Y-24105484D01*
X3507100Y-24494516D01*
X3655977Y-24853936D01*
X3750000Y-24947959D01*
X3750001Y-34787611D01*
X3735602Y-34860000D01*
X3792646Y-35146782D01*
X3912474Y-35326117D01*
X3955096Y-35389905D01*
X4016463Y-35430909D01*
X5977837Y-37392284D01*
X5877100Y-37635484D01*
X5877100Y-38024516D01*
X6025977Y-38383936D01*
X6301064Y-38659023D01*
X6660484Y-38807900D01*
X7049516Y-38807900D01*
X7408936Y-38659023D01*
X7684023Y-38383936D01*
X7832900Y-38024516D01*
X7832900Y-37635484D01*
X7684023Y-37276064D01*
X7596065Y-37188106D01*
X7590000Y-37157613D01*
X7590000Y-37157612D01*
X7547354Y-36943217D01*
X7384905Y-36700095D01*
X7323538Y-36659091D01*
X5220000Y-34555554D01*
X5220000Y-30755484D01*
X5297100Y-30755484D01*
X5297100Y-31144516D01*
X5445977Y-31503936D01*
X5540000Y-31597959D01*
X5540001Y-33757611D01*
X5525602Y-33830000D01*
X5582646Y-34116782D01*
X5699790Y-34292100D01*
X5745096Y-34359905D01*
X5806463Y-34400909D01*
X7537100Y-36131547D01*
X7537100Y-36264516D01*
X7685977Y-36623936D01*
X7961064Y-36899023D01*
X8320484Y-37047900D01*
X8709516Y-37047900D01*
X9068936Y-36899023D01*
X9344023Y-36623936D01*
X9367101Y-36568220D01*
X9367101Y-37444717D01*
X9352703Y-37517101D01*
X9367101Y-37589485D01*
X9367101Y-37589488D01*
X9409747Y-37803883D01*
X9467100Y-37889718D01*
X9467100Y-38054516D01*
X9615977Y-38413936D01*
X9891064Y-38689023D01*
X10250484Y-38837900D01*
X10639516Y-38837900D01*
X10998936Y-38689023D01*
X11274023Y-38413936D01*
X11422900Y-38054516D01*
X11422900Y-37665484D01*
X11274023Y-37306064D01*
X10998936Y-37030977D01*
X10837101Y-36963943D01*
X10837101Y-33929484D01*
X10851499Y-33857100D01*
X10837101Y-33784716D01*
X10837101Y-33784713D01*
X10794455Y-33570318D01*
X10632006Y-33327196D01*
X10570638Y-33286192D01*
X8540000Y-31255554D01*
X8540000Y-29337959D01*
X8681064Y-29479023D01*
X9040484Y-29627900D01*
X9173454Y-29627900D01*
X10797100Y-31251547D01*
X10797100Y-31384516D01*
X10945977Y-31743936D01*
X11221064Y-32019023D01*
X11580484Y-32167900D01*
X11969516Y-32167900D01*
X12328936Y-32019023D01*
X12604023Y-31743936D01*
X12752900Y-31384516D01*
X12752900Y-31377346D01*
X21897100Y-40521547D01*
X21897100Y-40654516D01*
X22045977Y-41013936D01*
X22321064Y-41289023D01*
X22680484Y-41437900D01*
X23069516Y-41437900D01*
X23428936Y-41289023D01*
X23704023Y-41013936D01*
X23852900Y-40654516D01*
X23852900Y-40265484D01*
X23704023Y-39906064D01*
X23428936Y-39630977D01*
X23069516Y-39482100D01*
X22936547Y-39482100D01*
X19541203Y-36086756D01*
X19632959Y-35995000D01*
X25141060Y-35995000D01*
X25592353Y-36446294D01*
X25592353Y-36579263D01*
X25741230Y-36938683D01*
X25800291Y-36997744D01*
X25551064Y-37100977D01*
X25275977Y-37376064D01*
X25127100Y-37735484D01*
X25127100Y-38124516D01*
X25275977Y-38483936D01*
X25551064Y-38759023D01*
X25780001Y-38853852D01*
X25780000Y-47952041D01*
X25685977Y-48046064D01*
X25537100Y-48405484D01*
X25537100Y-48794516D01*
X25685977Y-49153936D01*
X25961064Y-49429023D01*
X26320484Y-49577900D01*
X26709516Y-49577900D01*
X27068936Y-49429023D01*
X27344023Y-49153936D01*
X27492900Y-48794516D01*
X27492900Y-48405484D01*
X27344023Y-48046064D01*
X27250000Y-47952041D01*
X27250000Y-38412388D01*
X27264399Y-38340000D01*
X27218231Y-38107900D01*
X27207354Y-38053217D01*
X27082900Y-37866959D01*
X27082900Y-37735484D01*
X26934023Y-37376064D01*
X26874962Y-37317003D01*
X27124189Y-37213770D01*
X27399276Y-36938683D01*
X27548153Y-36579263D01*
X27548153Y-36190231D01*
X27399276Y-35830811D01*
X27124189Y-35555724D01*
X26764769Y-35406847D01*
X26631800Y-35406847D01*
X26016417Y-34791465D01*
X25975411Y-34730095D01*
X25732289Y-34567646D01*
X25517894Y-34525000D01*
X25517890Y-34525000D01*
X25445506Y-34510602D01*
X25373122Y-34525000D01*
X19632959Y-34525000D01*
X19538936Y-34430977D01*
X19179516Y-34282100D01*
X18790484Y-34282100D01*
X18431064Y-34430977D01*
X18158244Y-34703797D01*
X17112346Y-33657900D01*
X17279516Y-33657900D01*
X17638936Y-33509023D01*
X17914023Y-33233936D01*
X18062900Y-32874516D01*
X18062900Y-32741546D01*
X19279447Y-31525000D01*
X34309070Y-31525000D01*
X34381454Y-31539398D01*
X34453838Y-31525000D01*
X34453842Y-31525000D01*
X34668237Y-31482354D01*
X34911359Y-31319905D01*
X34933766Y-31286370D01*
X35033521Y-31327690D01*
X35033520Y-33186135D01*
X35019122Y-33258520D01*
X35033520Y-33330904D01*
X35033520Y-33330907D01*
X35076166Y-33545302D01*
X35238615Y-33788425D01*
X35299985Y-33829431D01*
X35373797Y-33903244D01*
X35190000Y-34087041D01*
X34933936Y-33830977D01*
X34574516Y-33682100D01*
X34185484Y-33682100D01*
X33895270Y-33802311D01*
X33883936Y-33790977D01*
X33524516Y-33642100D01*
X33135484Y-33642100D01*
X32776064Y-33790977D01*
X32500977Y-34066064D01*
X32391167Y-34331167D01*
X32126064Y-34440977D01*
X31850977Y-34716064D01*
X31702100Y-35075484D01*
X31702100Y-35464516D01*
X31850977Y-35823936D01*
X32126064Y-36099023D01*
X32485484Y-36247900D01*
X32618454Y-36247900D01*
X32920001Y-36549447D01*
X32920000Y-38087041D01*
X32825977Y-38181064D01*
X32677100Y-38540484D01*
X32677100Y-38929516D01*
X32825977Y-39288936D01*
X33101064Y-39564023D01*
X33460484Y-39712900D01*
X33667900Y-39712900D01*
X33667900Y-42083453D01*
X31195911Y-39611465D01*
X31154905Y-39550095D01*
X30911783Y-39387646D01*
X30697388Y-39345000D01*
X30697384Y-39345000D01*
X30625000Y-39330602D01*
X30552616Y-39345000D01*
X28932959Y-39345000D01*
X28838936Y-39250977D01*
X28479516Y-39102100D01*
X28090484Y-39102100D01*
X27731064Y-39250977D01*
X27455977Y-39526064D01*
X27307100Y-39885484D01*
X27307100Y-40274516D01*
X27455977Y-40633936D01*
X27731064Y-40909023D01*
X28090484Y-41057900D01*
X28479516Y-41057900D01*
X28838936Y-40909023D01*
X28932959Y-40815000D01*
X30320554Y-40815000D01*
X32747100Y-43241547D01*
X32747100Y-43374516D01*
X32895977Y-43733936D01*
X33171064Y-44009023D01*
X33530484Y-44157900D01*
X33667900Y-44157900D01*
X33667899Y-57547654D01*
X30733454Y-60482100D01*
X30600484Y-60482100D01*
X30241064Y-60630977D01*
X29965977Y-60906064D01*
X29817100Y-61265484D01*
X29817100Y-61654516D01*
X29965977Y-62013936D01*
X30241064Y-62289023D01*
X30600484Y-62437900D01*
X30989516Y-62437900D01*
X31348936Y-62289023D01*
X31624023Y-62013936D01*
X31772900Y-61654516D01*
X31772900Y-61521546D01*
X34871437Y-58423010D01*
X34932804Y-58382006D01*
X35095253Y-58138884D01*
X35137899Y-57924489D01*
X35137899Y-57924488D01*
X35152298Y-57852101D01*
X35137899Y-57779713D01*
X35137899Y-36457345D01*
X36110001Y-37429448D01*
X36110000Y-40072041D01*
X36015977Y-40166064D01*
X35867100Y-40525484D01*
X35867100Y-40914516D01*
X36015977Y-41273936D01*
X36291064Y-41549023D01*
X36650484Y-41697900D01*
X37039516Y-41697900D01*
X37398936Y-41549023D01*
X37674023Y-41273936D01*
X37822900Y-40914516D01*
X37822900Y-40525484D01*
X37674023Y-40166064D01*
X37580000Y-40072041D01*
X37580000Y-37339447D01*
X38830001Y-38589448D01*
X38830000Y-70392041D01*
X38735977Y-70486064D01*
X38587100Y-70845484D01*
X38587100Y-71234516D01*
X38735977Y-71593936D01*
X39011064Y-71869023D01*
X39370484Y-72017900D01*
X39759516Y-72017900D01*
X40118936Y-71869023D01*
X40394023Y-71593936D01*
X40542900Y-71234516D01*
X40542900Y-70845484D01*
X40394023Y-70486064D01*
X40300000Y-70392041D01*
X40300000Y-46727959D01*
X40451064Y-46879023D01*
X40810484Y-47027900D01*
X40943454Y-47027900D01*
X43874091Y-49958538D01*
X43915095Y-50019905D01*
X44158217Y-50182354D01*
X44372612Y-50225000D01*
X44445000Y-50239399D01*
X44517388Y-50225000D01*
X46177041Y-50225000D01*
X46271064Y-50319023D01*
X46630484Y-50467900D01*
X47019516Y-50467900D01*
X47378936Y-50319023D01*
X47654023Y-50043936D01*
X47802900Y-49684516D01*
X47802900Y-49295484D01*
X47654023Y-48936064D01*
X47378936Y-48660977D01*
X47019516Y-48512100D01*
X46630484Y-48512100D01*
X46271064Y-48660977D01*
X46177041Y-48755000D01*
X44749447Y-48755000D01*
X41982900Y-45988454D01*
X41982900Y-45855484D01*
X41862778Y-45565484D01*
X88377100Y-45565484D01*
X88377100Y-45954516D01*
X88525977Y-46313936D01*
X88620000Y-46407959D01*
X88620001Y-59267611D01*
X88605602Y-59340000D01*
X88627100Y-59448079D01*
X88627100Y-59784516D01*
X88775977Y-60143936D01*
X89051064Y-60419023D01*
X89410484Y-60567900D01*
X89799516Y-60567900D01*
X90158936Y-60419023D01*
X90434023Y-60143936D01*
X90582900Y-59784516D01*
X90582900Y-59395484D01*
X90434023Y-59036064D01*
X90158936Y-58760977D01*
X90090000Y-58732423D01*
X90090000Y-55759495D01*
X91578466Y-55759495D01*
X91711409Y-56245050D01*
X92704469Y-56697401D01*
X93795045Y-56735292D01*
X94817106Y-56352952D01*
X94978591Y-56245050D01*
X95111534Y-55759495D01*
X93345000Y-53992961D01*
X91578466Y-55759495D01*
X90090000Y-55759495D01*
X90090000Y-54425045D01*
X90584708Y-54425045D01*
X90967048Y-55447106D01*
X91074950Y-55608591D01*
X91560505Y-55741534D01*
X93327039Y-53975000D01*
X93362961Y-53975000D01*
X95129495Y-55741534D01*
X95615050Y-55608591D01*
X96067401Y-54615531D01*
X96105292Y-53524955D01*
X95722952Y-52502894D01*
X95615050Y-52341409D01*
X95129495Y-52208466D01*
X93362961Y-53975000D01*
X93327039Y-53975000D01*
X91560505Y-52208466D01*
X91074950Y-52341409D01*
X90622599Y-53334469D01*
X90584708Y-54425045D01*
X90090000Y-54425045D01*
X90090000Y-52190505D01*
X91578466Y-52190505D01*
X93345000Y-53957039D01*
X95111534Y-52190505D01*
X94978591Y-51704950D01*
X93985531Y-51252599D01*
X92894955Y-51214708D01*
X91872894Y-51597048D01*
X91711409Y-51704950D01*
X91578466Y-52190505D01*
X90090000Y-52190505D01*
X90090000Y-46407959D01*
X90184023Y-46313936D01*
X90332900Y-45954516D01*
X90332900Y-45565484D01*
X90184023Y-45206064D01*
X89908936Y-44930977D01*
X89549516Y-44782100D01*
X89160484Y-44782100D01*
X88801064Y-44930977D01*
X88525977Y-45206064D01*
X88377100Y-45565484D01*
X41862778Y-45565484D01*
X41834023Y-45496064D01*
X41558936Y-45220977D01*
X41199516Y-45072100D01*
X40810484Y-45072100D01*
X40451064Y-45220977D01*
X40300000Y-45372041D01*
X40300000Y-43695484D01*
X41277100Y-43695484D01*
X41277100Y-44084516D01*
X41425977Y-44443936D01*
X41701064Y-44719023D01*
X42060484Y-44867900D01*
X42449516Y-44867900D01*
X42808936Y-44719023D01*
X43084023Y-44443936D01*
X43232900Y-44084516D01*
X43232900Y-43951546D01*
X45099447Y-42085000D01*
X54307041Y-42085000D01*
X54401064Y-42179023D01*
X54760484Y-42327900D01*
X55149516Y-42327900D01*
X55508936Y-42179023D01*
X55552475Y-42135484D01*
X57397100Y-42135484D01*
X57397100Y-42524516D01*
X57545977Y-42883936D01*
X57821064Y-43159023D01*
X58180484Y-43307900D01*
X58569516Y-43307900D01*
X58928936Y-43159023D01*
X59022959Y-43065000D01*
X63411859Y-43065000D01*
X63485977Y-43243936D01*
X63761064Y-43519023D01*
X64120484Y-43667900D01*
X64509516Y-43667900D01*
X64868936Y-43519023D01*
X65144023Y-43243936D01*
X65292900Y-42884516D01*
X65292900Y-42635484D01*
X85647100Y-42635484D01*
X85647100Y-43024516D01*
X85795977Y-43383936D01*
X86071064Y-43659023D01*
X86430484Y-43807900D01*
X86819516Y-43807900D01*
X87178936Y-43659023D01*
X87272959Y-43565000D01*
X92352616Y-43565000D01*
X92425000Y-43579398D01*
X92497384Y-43565000D01*
X92497388Y-43565000D01*
X92711783Y-43522354D01*
X92954905Y-43359905D01*
X92969608Y-43337900D01*
X93089516Y-43337900D01*
X93448936Y-43189023D01*
X93724023Y-42913936D01*
X93872900Y-42554516D01*
X93872900Y-42165484D01*
X93724023Y-41806064D01*
X93448936Y-41530977D01*
X93089516Y-41382100D01*
X92700484Y-41382100D01*
X92341064Y-41530977D01*
X92065977Y-41806064D01*
X91946295Y-42095000D01*
X87272959Y-42095000D01*
X87178936Y-42000977D01*
X86819516Y-41852100D01*
X86430484Y-41852100D01*
X86071064Y-42000977D01*
X85795977Y-42276064D01*
X85647100Y-42635484D01*
X65292900Y-42635484D01*
X65292900Y-42495484D01*
X65144023Y-42136064D01*
X64868936Y-41860977D01*
X64509516Y-41712100D01*
X64353211Y-41712100D01*
X64241783Y-41637646D01*
X64027388Y-41595000D01*
X64027384Y-41595000D01*
X63955000Y-41580602D01*
X63882616Y-41595000D01*
X59022959Y-41595000D01*
X58928936Y-41500977D01*
X58569516Y-41352100D01*
X58180484Y-41352100D01*
X57821064Y-41500977D01*
X57545977Y-41776064D01*
X57397100Y-42135484D01*
X55552475Y-42135484D01*
X55784023Y-41903936D01*
X55932900Y-41544516D01*
X55932900Y-41155484D01*
X55784023Y-40796064D01*
X55508936Y-40520977D01*
X55490512Y-40513345D01*
X55838936Y-40369023D01*
X55932959Y-40275000D01*
X62362616Y-40275000D01*
X62435000Y-40289398D01*
X62507384Y-40275000D01*
X62507388Y-40275000D01*
X62721783Y-40232354D01*
X62964905Y-40069905D01*
X63005911Y-40008535D01*
X76356547Y-26657900D01*
X76489516Y-26657900D01*
X76848936Y-26509023D01*
X76942503Y-26415456D01*
X79340001Y-28812954D01*
X79340000Y-29462041D01*
X79245977Y-29556064D01*
X79097100Y-29915484D01*
X79097100Y-30304516D01*
X79245977Y-30663936D01*
X79398797Y-30816756D01*
X73506465Y-36709089D01*
X73445095Y-36750095D01*
X73282646Y-36993218D01*
X73240000Y-37207613D01*
X73240000Y-37207616D01*
X73225602Y-37280000D01*
X73240000Y-37352385D01*
X73240001Y-39142040D01*
X73145977Y-39236064D01*
X72997100Y-39595484D01*
X72997100Y-39984516D01*
X73145977Y-40343936D01*
X73421064Y-40619023D01*
X73780484Y-40767900D01*
X74169516Y-40767900D01*
X74528936Y-40619023D01*
X74804023Y-40343936D01*
X74952900Y-39984516D01*
X74952900Y-39595484D01*
X74804023Y-39236064D01*
X74710000Y-39142041D01*
X74710000Y-37584446D01*
X82088962Y-30205484D01*
X85847100Y-30205484D01*
X85847100Y-30594516D01*
X85995977Y-30953936D01*
X86271064Y-31229023D01*
X86630484Y-31377900D01*
X87019516Y-31377900D01*
X87378936Y-31229023D01*
X87654023Y-30953936D01*
X87802900Y-30594516D01*
X87802900Y-30205484D01*
X87751955Y-30082491D01*
X90866547Y-26967900D01*
X90999516Y-26967900D01*
X91358936Y-26819023D01*
X91634023Y-26543936D01*
X91782900Y-26184516D01*
X91782900Y-25795484D01*
X91634023Y-25436064D01*
X91358936Y-25160977D01*
X90999516Y-25012100D01*
X90610484Y-25012100D01*
X90251064Y-25160977D01*
X89975977Y-25436064D01*
X89827100Y-25795484D01*
X89827100Y-25928453D01*
X86356465Y-29399089D01*
X86295095Y-29440095D01*
X86132646Y-29683218D01*
X86126146Y-29715895D01*
X85995977Y-29846064D01*
X85847100Y-30205484D01*
X82088962Y-30205484D01*
X85736547Y-26557900D01*
X85869516Y-26557900D01*
X86228936Y-26409023D01*
X86504023Y-26133936D01*
X86652900Y-25774516D01*
X86652900Y-25385484D01*
X86504023Y-25026064D01*
X86228936Y-24750977D01*
X85869516Y-24602100D01*
X85480484Y-24602100D01*
X85121064Y-24750977D01*
X84845977Y-25026064D01*
X84697100Y-25385484D01*
X84697100Y-25518453D01*
X80810000Y-29405553D01*
X80810000Y-28580890D01*
X80824398Y-28508506D01*
X80810000Y-28436122D01*
X80810000Y-28436118D01*
X80767354Y-28221723D01*
X80604905Y-27978601D01*
X80543538Y-27937597D01*
X66877405Y-14271465D01*
X66836399Y-14210095D01*
X66593277Y-14047646D01*
X66378882Y-14005000D01*
X66378878Y-14005000D01*
X66306494Y-13990602D01*
X66234110Y-14005000D01*
X61572959Y-14005000D01*
X61478936Y-13910977D01*
X61119516Y-13762100D01*
X60730484Y-13762100D01*
X60371064Y-13910977D01*
X60095977Y-14186064D01*
X59947100Y-14545484D01*
X59947100Y-14934516D01*
X60095977Y-15293936D01*
X60371064Y-15569023D01*
X60730484Y-15717900D01*
X61119516Y-15717900D01*
X61478936Y-15569023D01*
X61572959Y-15475000D01*
X66002048Y-15475000D01*
X75472047Y-24945000D01*
X68799447Y-24945000D01*
X64822900Y-20968454D01*
X64822900Y-20835484D01*
X64674023Y-20476064D01*
X64398936Y-20200977D01*
X64039516Y-20052100D01*
X63650484Y-20052100D01*
X63291064Y-20200977D01*
X63197041Y-20295000D01*
X57799447Y-20295000D01*
X55169931Y-17665484D01*
X58567100Y-17665484D01*
X58567100Y-18054516D01*
X58715977Y-18413936D01*
X58991064Y-18689023D01*
X59350484Y-18837900D01*
X59739516Y-18837900D01*
X60098936Y-18689023D01*
X60374023Y-18413936D01*
X60415004Y-18315000D01*
X65997041Y-18315000D01*
X66091064Y-18409023D01*
X66450484Y-18557900D01*
X66839516Y-18557900D01*
X67198936Y-18409023D01*
X67474023Y-18133936D01*
X67622900Y-17774516D01*
X67622900Y-17385484D01*
X67474023Y-17026064D01*
X67198936Y-16750977D01*
X66839516Y-16602100D01*
X66450484Y-16602100D01*
X66091064Y-16750977D01*
X65997041Y-16845000D01*
X59897384Y-16845000D01*
X59825000Y-16830602D01*
X59752616Y-16845000D01*
X59752612Y-16845000D01*
X59566099Y-16882100D01*
X59350484Y-16882100D01*
X58991064Y-17030977D01*
X58715977Y-17306064D01*
X58567100Y-17665484D01*
X55169931Y-17665484D01*
X52122900Y-14618454D01*
X52122900Y-14485484D01*
X51974023Y-14126064D01*
X51698936Y-13850977D01*
X51339516Y-13702100D01*
X50950484Y-13702100D01*
X50591064Y-13850977D01*
X50315977Y-14126064D01*
X50167100Y-14485484D01*
X50167100Y-14874516D01*
X50315977Y-15233936D01*
X50591064Y-15509023D01*
X50950484Y-15657900D01*
X51083454Y-15657900D01*
X56924090Y-21498537D01*
X56965095Y-21559905D01*
X57208217Y-21722354D01*
X57422612Y-21765000D01*
X57422615Y-21765000D01*
X57494999Y-21779398D01*
X57567383Y-21765000D01*
X63197041Y-21765000D01*
X63291064Y-21859023D01*
X63650484Y-22007900D01*
X63783454Y-22007900D01*
X67924091Y-26148538D01*
X67965095Y-26209905D01*
X68208217Y-26372354D01*
X68422612Y-26415000D01*
X68422615Y-26415000D01*
X68494999Y-26429398D01*
X68567383Y-26415000D01*
X74520553Y-26415000D01*
X62130554Y-38805000D01*
X55932959Y-38805000D01*
X55838936Y-38710977D01*
X55479516Y-38562100D01*
X55090484Y-38562100D01*
X54731064Y-38710977D01*
X54455977Y-38986064D01*
X54307100Y-39345484D01*
X54307100Y-39734516D01*
X54455977Y-40093936D01*
X54731064Y-40369023D01*
X54749488Y-40376655D01*
X54401064Y-40520977D01*
X54307041Y-40615000D01*
X51981867Y-40615000D01*
X52122900Y-40274516D01*
X52122900Y-40141546D01*
X57799447Y-34465000D01*
X61927041Y-34465000D01*
X62021064Y-34559023D01*
X62380484Y-34707900D01*
X62769516Y-34707900D01*
X63128936Y-34559023D01*
X63404023Y-34283936D01*
X63552900Y-33924516D01*
X63552900Y-33535484D01*
X63404023Y-33176064D01*
X63128936Y-32900977D01*
X62769516Y-32752100D01*
X62380484Y-32752100D01*
X62021064Y-32900977D01*
X61927041Y-32995000D01*
X57567383Y-32995000D01*
X57494999Y-32980602D01*
X57422615Y-32995000D01*
X53989447Y-32995000D01*
X52225007Y-31230561D01*
X52225007Y-31097591D01*
X52076130Y-30738171D01*
X51801043Y-30463084D01*
X51441623Y-30314207D01*
X51052591Y-30314207D01*
X50693171Y-30463084D01*
X50418084Y-30738171D01*
X50269207Y-31097591D01*
X50269207Y-31486623D01*
X50418084Y-31846043D01*
X50693171Y-32121130D01*
X51052591Y-32270007D01*
X51185561Y-32270007D01*
X53114090Y-34198537D01*
X53155095Y-34259905D01*
X53398217Y-34422354D01*
X53612612Y-34465000D01*
X53612616Y-34465000D01*
X53685000Y-34479398D01*
X53757384Y-34465000D01*
X55720553Y-34465000D01*
X51083454Y-39102100D01*
X50950484Y-39102100D01*
X50591064Y-39250977D01*
X50315977Y-39526064D01*
X50167100Y-39885484D01*
X50167100Y-40274516D01*
X50308133Y-40615000D01*
X44867383Y-40615000D01*
X44794999Y-40600602D01*
X44722615Y-40615000D01*
X44722612Y-40615000D01*
X44508217Y-40657646D01*
X44265095Y-40820095D01*
X44224091Y-40881463D01*
X42193454Y-42912100D01*
X42060484Y-42912100D01*
X41701064Y-43060977D01*
X41425977Y-43336064D01*
X41277100Y-43695484D01*
X40300000Y-43695484D01*
X40300000Y-38357383D01*
X40314398Y-38284999D01*
X40300000Y-38212615D01*
X40300000Y-38212612D01*
X40257354Y-37998217D01*
X40168341Y-37865000D01*
X50747041Y-37865000D01*
X50841064Y-37959023D01*
X51200484Y-38107900D01*
X51589516Y-38107900D01*
X51948936Y-37959023D01*
X52224023Y-37683936D01*
X52372900Y-37324516D01*
X52372900Y-36935484D01*
X52224023Y-36576064D01*
X51948936Y-36300977D01*
X51589516Y-36152100D01*
X51200484Y-36152100D01*
X50841064Y-36300977D01*
X50747041Y-36395000D01*
X39944447Y-36395000D01*
X36503520Y-32954074D01*
X36503520Y-32638450D01*
X37217000Y-32638450D01*
X37217000Y-33417357D01*
X37391011Y-33837458D01*
X37712543Y-34158989D01*
X38132643Y-34333000D01*
X38911550Y-34333000D01*
X39197300Y-34047250D01*
X39197300Y-32352700D01*
X37502750Y-32352700D01*
X37217000Y-32638450D01*
X36503520Y-32638450D01*
X36503520Y-31262643D01*
X37217000Y-31262643D01*
X37217000Y-32041550D01*
X37502750Y-32327300D01*
X39197300Y-32327300D01*
X39197300Y-30632750D01*
X39222700Y-30632750D01*
X39222700Y-32327300D01*
X39242700Y-32327300D01*
X39242700Y-32352700D01*
X39222700Y-32352700D01*
X39222700Y-34047250D01*
X39508450Y-34333000D01*
X40287357Y-34333000D01*
X40707457Y-34158989D01*
X41028989Y-33837458D01*
X41091677Y-33686116D01*
X41170582Y-33738839D01*
X41603744Y-33825000D01*
X41896256Y-33825000D01*
X42329418Y-33738839D01*
X42408323Y-33686116D01*
X42471011Y-33837458D01*
X42792543Y-34158989D01*
X43212643Y-34333000D01*
X43991550Y-34333000D01*
X44277300Y-34047250D01*
X44277300Y-32352700D01*
X44257300Y-32352700D01*
X44257300Y-32327300D01*
X44277300Y-32327300D01*
X44277300Y-30632750D01*
X44302700Y-30632750D01*
X44302700Y-32327300D01*
X44322700Y-32327300D01*
X44322700Y-32352700D01*
X44302700Y-32352700D01*
X44302700Y-34047250D01*
X44588450Y-34333000D01*
X45367357Y-34333000D01*
X45787457Y-34158989D01*
X46108989Y-33837458D01*
X46171677Y-33686116D01*
X46250582Y-33738839D01*
X46683744Y-33825000D01*
X46976256Y-33825000D01*
X47409418Y-33738839D01*
X47900625Y-33410625D01*
X48228839Y-32919418D01*
X48344092Y-32340000D01*
X48228839Y-31760582D01*
X47900625Y-31269375D01*
X47409418Y-30941161D01*
X46976256Y-30855000D01*
X46683744Y-30855000D01*
X46250582Y-30941161D01*
X46171677Y-30993884D01*
X46108989Y-30842542D01*
X45787457Y-30521011D01*
X45367357Y-30347000D01*
X44588450Y-30347000D01*
X44302700Y-30632750D01*
X44277300Y-30632750D01*
X43991550Y-30347000D01*
X43212643Y-30347000D01*
X42792543Y-30521011D01*
X42471011Y-30842542D01*
X42408323Y-30993884D01*
X42329418Y-30941161D01*
X41896256Y-30855000D01*
X41603744Y-30855000D01*
X41170582Y-30941161D01*
X41091677Y-30993884D01*
X41028989Y-30842542D01*
X40707457Y-30521011D01*
X40287357Y-30347000D01*
X39508450Y-30347000D01*
X39222700Y-30632750D01*
X39197300Y-30632750D01*
X38911550Y-30347000D01*
X38132643Y-30347000D01*
X37712543Y-30521011D01*
X37391011Y-30842542D01*
X37217000Y-31262643D01*
X36503520Y-31262643D01*
X36503520Y-30930117D01*
X36517918Y-30857733D01*
X36503520Y-30785349D01*
X36503520Y-30785345D01*
X36460874Y-30570950D01*
X36298425Y-30327828D01*
X36261487Y-30303147D01*
X36261487Y-30178284D01*
X36226990Y-30095000D01*
X38517616Y-30095000D01*
X38590000Y-30109398D01*
X38662384Y-30095000D01*
X38662388Y-30095000D01*
X38876783Y-30052354D01*
X39119905Y-29889905D01*
X39160911Y-29828535D01*
X39224446Y-29765000D01*
X47307616Y-29765000D01*
X47380000Y-29779398D01*
X47452384Y-29765000D01*
X47452388Y-29765000D01*
X47666783Y-29722354D01*
X47909905Y-29559905D01*
X47950911Y-29498535D01*
X49001548Y-28447899D01*
X51009717Y-28447899D01*
X51082101Y-28462297D01*
X51154485Y-28447899D01*
X51154489Y-28447899D01*
X51368884Y-28405253D01*
X51454719Y-28347900D01*
X51619516Y-28347900D01*
X51978936Y-28199023D01*
X52254023Y-27923936D01*
X52402900Y-27564516D01*
X52402900Y-27175484D01*
X52254023Y-26816064D01*
X51978936Y-26540977D01*
X51619516Y-26392100D01*
X51230484Y-26392100D01*
X50871064Y-26540977D01*
X50595977Y-26816064D01*
X50528943Y-26977899D01*
X48769484Y-26977899D01*
X48697100Y-26963501D01*
X48624716Y-26977899D01*
X48624713Y-26977899D01*
X48410318Y-27020545D01*
X48167196Y-27182994D01*
X48126191Y-27244362D01*
X47475061Y-27895493D01*
X47409023Y-27736064D01*
X47133936Y-27460977D01*
X46774516Y-27312100D01*
X46467968Y-27312100D01*
X46467968Y-27125484D01*
X46319091Y-26766064D01*
X46044004Y-26490977D01*
X45684584Y-26342100D01*
X45295552Y-26342100D01*
X44936132Y-26490977D01*
X44888278Y-26538831D01*
X43755000Y-25405554D01*
X43755000Y-23395484D01*
X44872100Y-23395484D01*
X44872100Y-23784516D01*
X45020977Y-24143936D01*
X45296064Y-24419023D01*
X45655484Y-24567900D01*
X46044516Y-24567900D01*
X46403936Y-24419023D01*
X46579619Y-24243340D01*
X46735484Y-24307902D01*
X47124516Y-24307902D01*
X47483936Y-24159025D01*
X47759023Y-23883938D01*
X47907900Y-23524518D01*
X47907900Y-23135486D01*
X47859472Y-23018570D01*
X47900157Y-22977885D01*
X48049034Y-22618465D01*
X48049034Y-22343925D01*
X48299023Y-22093936D01*
X48447900Y-21734516D01*
X48447900Y-21345484D01*
X48313788Y-21021711D01*
X48416846Y-20979023D01*
X48691933Y-20703936D01*
X48840810Y-20344516D01*
X48840810Y-19955484D01*
X48758950Y-19757857D01*
X48876846Y-19709023D01*
X49151933Y-19433936D01*
X49300810Y-19074516D01*
X49300810Y-18685484D01*
X49151933Y-18326064D01*
X49057910Y-18232041D01*
X49057910Y-13971536D01*
X53253962Y-9775484D01*
X57427100Y-9775484D01*
X57427100Y-10164516D01*
X57575977Y-10523936D01*
X57851064Y-10799023D01*
X58210484Y-10947900D01*
X58599516Y-10947900D01*
X58958936Y-10799023D01*
X59052959Y-10705000D01*
X62410554Y-10705000D01*
X63677100Y-11971547D01*
X63677100Y-12104516D01*
X63825977Y-12463936D01*
X64101064Y-12739023D01*
X64460484Y-12887900D01*
X64849516Y-12887900D01*
X65208936Y-12739023D01*
X65484023Y-12463936D01*
X65632900Y-12104516D01*
X65632900Y-11715484D01*
X65484023Y-11356064D01*
X65208936Y-11080977D01*
X64849516Y-10932100D01*
X64716547Y-10932100D01*
X63285911Y-9501465D01*
X63244905Y-9440095D01*
X63001783Y-9277646D01*
X62787388Y-9235000D01*
X62787384Y-9235000D01*
X62715000Y-9220602D01*
X62642616Y-9235000D01*
X59052959Y-9235000D01*
X58958936Y-9140977D01*
X58599516Y-8992100D01*
X58210484Y-8992100D01*
X57851064Y-9140977D01*
X57575977Y-9416064D01*
X57427100Y-9775484D01*
X53253962Y-9775484D01*
X54073962Y-8955484D01*
X72997100Y-8955484D01*
X72997100Y-9344516D01*
X73145977Y-9703936D01*
X73421064Y-9979023D01*
X73780484Y-10127900D01*
X74169516Y-10127900D01*
X74528936Y-9979023D01*
X74622959Y-9885000D01*
X77600554Y-9885000D01*
X88267100Y-20551547D01*
X88267100Y-20684516D01*
X88415977Y-21043936D01*
X88691064Y-21319023D01*
X89050484Y-21467900D01*
X89439516Y-21467900D01*
X89798936Y-21319023D01*
X90074023Y-21043936D01*
X90222900Y-20684516D01*
X90222900Y-20295484D01*
X90074023Y-19936064D01*
X89798936Y-19660977D01*
X89439516Y-19512100D01*
X89306547Y-19512100D01*
X84934511Y-15140064D01*
X88304816Y-15140064D01*
X88488396Y-15323645D01*
X88415977Y-15396064D01*
X88267100Y-15755484D01*
X88267100Y-16144516D01*
X88415977Y-16503936D01*
X88691064Y-16779023D01*
X89050484Y-16927900D01*
X89183454Y-16927900D01*
X92713297Y-20457744D01*
X92515977Y-20655064D01*
X92367100Y-21014484D01*
X92367100Y-21403516D01*
X92515977Y-21762936D01*
X92791064Y-22038023D01*
X92971991Y-22112966D01*
X92971990Y-30194563D01*
X89473454Y-33693100D01*
X89340484Y-33693100D01*
X88981064Y-33841977D01*
X88705977Y-34117064D01*
X88557100Y-34476484D01*
X88557100Y-34865516D01*
X88705977Y-35224936D01*
X88981064Y-35500023D01*
X89340484Y-35648900D01*
X89729516Y-35648900D01*
X90088936Y-35500023D01*
X90364023Y-35224936D01*
X90512900Y-34865516D01*
X90512900Y-34732546D01*
X93372001Y-31873446D01*
X93372001Y-36183552D01*
X92993454Y-36562100D01*
X92860484Y-36562100D01*
X92501064Y-36710977D01*
X92225977Y-36986064D01*
X92077100Y-37345484D01*
X92077100Y-37734516D01*
X92225977Y-38093936D01*
X92501064Y-38369023D01*
X92860484Y-38517900D01*
X93249516Y-38517900D01*
X93608936Y-38369023D01*
X93884023Y-38093936D01*
X94032900Y-37734516D01*
X94032900Y-37601546D01*
X94575537Y-37058910D01*
X94636905Y-37017905D01*
X94799354Y-36774783D01*
X94842000Y-36560388D01*
X94856399Y-36488000D01*
X94842000Y-36415612D01*
X94842000Y-20884383D01*
X94856398Y-20811999D01*
X94842000Y-20739613D01*
X94842000Y-20739612D01*
X94816673Y-20612286D01*
X94954122Y-20474837D01*
X95102999Y-20115417D01*
X95102999Y-19726385D01*
X94954122Y-19366965D01*
X94679035Y-19091878D01*
X94319615Y-18943001D01*
X94186646Y-18943001D01*
X89180173Y-13936529D01*
X89139167Y-13875159D01*
X88896045Y-13712710D01*
X88681650Y-13670064D01*
X88681646Y-13670064D01*
X88609262Y-13655666D01*
X88536878Y-13670064D01*
X84848959Y-13670064D01*
X84754936Y-13576041D01*
X84395516Y-13427164D01*
X84006484Y-13427164D01*
X83647064Y-13576041D01*
X83508776Y-13714329D01*
X79699931Y-9905484D01*
X86337100Y-9905484D01*
X86337100Y-10294516D01*
X86485977Y-10653936D01*
X86761064Y-10929023D01*
X86951247Y-11007799D01*
X86965545Y-11079682D01*
X87127994Y-11322804D01*
X87189364Y-11363810D01*
X88064090Y-12238537D01*
X88105095Y-12299905D01*
X88348217Y-12462354D01*
X88562612Y-12505000D01*
X88562615Y-12505000D01*
X88634999Y-12519398D01*
X88707383Y-12505000D01*
X92397041Y-12505000D01*
X92491064Y-12599023D01*
X92850484Y-12747900D01*
X93239516Y-12747900D01*
X93598936Y-12599023D01*
X93874023Y-12323936D01*
X94022900Y-11964516D01*
X94022900Y-11575484D01*
X93874023Y-11216064D01*
X93598936Y-10940977D01*
X93239516Y-10792100D01*
X92850484Y-10792100D01*
X92491064Y-10940977D01*
X92397041Y-11035000D01*
X88939447Y-11035000D01*
X88397350Y-10492904D01*
X88407297Y-10442898D01*
X88392899Y-10370512D01*
X88392899Y-10370511D01*
X88350253Y-10156116D01*
X88292900Y-10070281D01*
X88292900Y-9905484D01*
X88144023Y-9546064D01*
X87868936Y-9270977D01*
X87509516Y-9122100D01*
X87120484Y-9122100D01*
X86761064Y-9270977D01*
X86485977Y-9546064D01*
X86337100Y-9905484D01*
X79699931Y-9905484D01*
X78475911Y-8681465D01*
X78434905Y-8620095D01*
X78191783Y-8457646D01*
X77977388Y-8415000D01*
X77977384Y-8415000D01*
X77905000Y-8400602D01*
X77832616Y-8415000D01*
X74622959Y-8415000D01*
X74528936Y-8320977D01*
X74169516Y-8172100D01*
X73780484Y-8172100D01*
X73421064Y-8320977D01*
X73145977Y-8596064D01*
X72997100Y-8955484D01*
X54073962Y-8955484D01*
X56464427Y-6565020D01*
X83812596Y-6565020D01*
X83884980Y-6579418D01*
X83957364Y-6565020D01*
X83957368Y-6565020D01*
X84171763Y-6522374D01*
X84414885Y-6359925D01*
X84455891Y-6298555D01*
X84846546Y-5907900D01*
X84979516Y-5907900D01*
X85338936Y-5759023D01*
X85614023Y-5483936D01*
X85762900Y-5124516D01*
X85762900Y-4959495D01*
X91578466Y-4959495D01*
X91711409Y-5445050D01*
X92704469Y-5897401D01*
X93795045Y-5935292D01*
X94817106Y-5552952D01*
X94978591Y-5445050D01*
X95111534Y-4959495D01*
X93345000Y-3192961D01*
X91578466Y-4959495D01*
X85762900Y-4959495D01*
X85762900Y-4735484D01*
X85614023Y-4376064D01*
X85338936Y-4100977D01*
X84979516Y-3952100D01*
X84590484Y-3952100D01*
X84231064Y-4100977D01*
X83955977Y-4376064D01*
X83807100Y-4735484D01*
X83807100Y-4868454D01*
X83580534Y-5095020D01*
X78452900Y-5095020D01*
X78452900Y-4775484D01*
X78304023Y-4416064D01*
X78028936Y-4140977D01*
X77669516Y-3992100D01*
X77280484Y-3992100D01*
X76921064Y-4140977D01*
X76645977Y-4416064D01*
X76530434Y-4695009D01*
X70512900Y-4695009D01*
X70512900Y-4435484D01*
X70364023Y-4076064D01*
X70088936Y-3800977D01*
X69729516Y-3652100D01*
X69340484Y-3652100D01*
X68981064Y-3800977D01*
X68705977Y-4076064D01*
X68615291Y-4295000D01*
X62402900Y-4295000D01*
X62402900Y-4175484D01*
X62254023Y-3816064D01*
X62063004Y-3625045D01*
X90584708Y-3625045D01*
X90967048Y-4647106D01*
X91074950Y-4808591D01*
X91560505Y-4941534D01*
X93327039Y-3175000D01*
X93362961Y-3175000D01*
X95129495Y-4941534D01*
X95615050Y-4808591D01*
X96067401Y-3815531D01*
X96105292Y-2724955D01*
X95722952Y-1702894D01*
X95615050Y-1541409D01*
X95129495Y-1408466D01*
X93362961Y-3175000D01*
X93327039Y-3175000D01*
X91560505Y-1408466D01*
X91074950Y-1541409D01*
X90622599Y-2534469D01*
X90584708Y-3625045D01*
X62063004Y-3625045D01*
X61978936Y-3540977D01*
X61619516Y-3392100D01*
X61230484Y-3392100D01*
X60871064Y-3540977D01*
X60777041Y-3635000D01*
X55282383Y-3635000D01*
X55209999Y-3620602D01*
X55137615Y-3635000D01*
X55137612Y-3635000D01*
X55083686Y-3645727D01*
X54916829Y-3478870D01*
X54557409Y-3329993D01*
X54168377Y-3329993D01*
X53808957Y-3478870D01*
X53533870Y-3753957D01*
X53384993Y-4113377D01*
X53384993Y-4246346D01*
X48160000Y-9471340D01*
X48160000Y-6017959D01*
X48254023Y-5923936D01*
X48402900Y-5564516D01*
X48402900Y-5175484D01*
X48254023Y-4816064D01*
X47978936Y-4540977D01*
X47619516Y-4392100D01*
X47230484Y-4392100D01*
X46871064Y-4540977D01*
X46595977Y-4816064D01*
X46447100Y-5175484D01*
X46447100Y-5564516D01*
X46595977Y-5923936D01*
X46690000Y-6017959D01*
X46690001Y-9990552D01*
X45381465Y-11299089D01*
X45320095Y-11340095D01*
X45157646Y-11583218D01*
X45115000Y-11797613D01*
X45115000Y-11797616D01*
X45100602Y-11870000D01*
X45115000Y-11942384D01*
X45115001Y-22942040D01*
X45020977Y-23036064D01*
X44872100Y-23395484D01*
X43755000Y-23395484D01*
X43755000Y-22802384D01*
X43769398Y-22730000D01*
X43755000Y-22657616D01*
X43755000Y-22657612D01*
X43712354Y-22443217D01*
X43549905Y-22200095D01*
X43488538Y-22159091D01*
X43031203Y-21701756D01*
X43134023Y-21598936D01*
X43282900Y-21239516D01*
X43282900Y-20850484D01*
X43134023Y-20491064D01*
X42858936Y-20215977D01*
X42499516Y-20067100D01*
X42366546Y-20067100D01*
X42245000Y-19945554D01*
X42245000Y-18627384D01*
X42259398Y-18555000D01*
X42245000Y-18482616D01*
X42245000Y-18482612D01*
X42202354Y-18268217D01*
X42039905Y-18025095D01*
X41978537Y-17984090D01*
X41899447Y-17905000D01*
X41978538Y-17825909D01*
X42039905Y-17784905D01*
X42202354Y-17541783D01*
X42245000Y-17327388D01*
X42245000Y-17327384D01*
X42259398Y-17255000D01*
X42245000Y-17182616D01*
X42245000Y-12432388D01*
X42259399Y-12360000D01*
X42227378Y-12199023D01*
X42202354Y-12073217D01*
X42039905Y-11830095D01*
X41978538Y-11789091D01*
X35400911Y-5211465D01*
X35359905Y-5150095D01*
X35116783Y-4987646D01*
X34902388Y-4945000D01*
X34902384Y-4945000D01*
X34830000Y-4930602D01*
X34757616Y-4945000D01*
X27914447Y-4945000D01*
X27149463Y-4180017D01*
X27433839Y-3754418D01*
X27549092Y-3175000D01*
X27433839Y-2595582D01*
X27105625Y-2104375D01*
X26614418Y-1776161D01*
X26181256Y-1690000D01*
X25888744Y-1690000D01*
X25455582Y-1776161D01*
X24964375Y-2104375D01*
X24765000Y-2402761D01*
X24565625Y-2104375D01*
X24074418Y-1776161D01*
X23641256Y-1690000D01*
X23348744Y-1690000D01*
X22915582Y-1776161D01*
X22424375Y-2104375D01*
X22225000Y-2402761D01*
X22025625Y-2104375D01*
X21534418Y-1776161D01*
X21101256Y-1690000D01*
X20808744Y-1690000D01*
X20375582Y-1776161D01*
X19884375Y-2104375D01*
X19685000Y-2402761D01*
X19485625Y-2104375D01*
X18994418Y-1776161D01*
X18561256Y-1690000D01*
X18268744Y-1690000D01*
X17835582Y-1776161D01*
X17344375Y-2104375D01*
X17145000Y-2402761D01*
X16945625Y-2104375D01*
X16454418Y-1776161D01*
X16021256Y-1690000D01*
X15728744Y-1690000D01*
X15295582Y-1776161D01*
X15216677Y-1828884D01*
X15153989Y-1677542D01*
X14832457Y-1356011D01*
X14412357Y-1182000D01*
X13633450Y-1182000D01*
X13347700Y-1467750D01*
X13347700Y-3162300D01*
X13367700Y-3162300D01*
X13367700Y-3187700D01*
X13347700Y-3187700D01*
X13347700Y-4882250D01*
X13633450Y-5168000D01*
X14412357Y-5168000D01*
X14832457Y-4993989D01*
X15153989Y-4672458D01*
X15170243Y-4633218D01*
X15265251Y-4775408D01*
X15265254Y-4775411D01*
X15309048Y-4840953D01*
X15374590Y-4884747D01*
X22800253Y-12310411D01*
X22844047Y-12375953D01*
X22909589Y-12419747D01*
X22909591Y-12419749D01*
X22973354Y-12462354D01*
X23103708Y-12549454D01*
X23332684Y-12595000D01*
X23332688Y-12595000D01*
X23409999Y-12610378D01*
X23487310Y-12595000D01*
X29359843Y-12595000D01*
X29450000Y-12685157D01*
X29450000Y-13097619D01*
X29643346Y-13564397D01*
X30000603Y-13921654D01*
X30467381Y-14115000D01*
X30972619Y-14115000D01*
X31439397Y-13921654D01*
X31731051Y-13630000D01*
X32738949Y-13630000D01*
X33010603Y-13901654D01*
X33477381Y-14095000D01*
X33982619Y-14095000D01*
X34449397Y-13901654D01*
X34741051Y-13610000D01*
X35648949Y-13610000D01*
X35950603Y-13911654D01*
X36417381Y-14105000D01*
X36922619Y-14105000D01*
X37389397Y-13911654D01*
X37746654Y-13554397D01*
X37883321Y-13224455D01*
X37945001Y-13250004D01*
X37945000Y-15202041D01*
X37830977Y-15316064D01*
X37682100Y-15675484D01*
X37682100Y-16064516D01*
X37830977Y-16423936D01*
X38106064Y-16699023D01*
X38465484Y-16847900D01*
X38854516Y-16847900D01*
X39213936Y-16699023D01*
X39489023Y-16423936D01*
X39637900Y-16064516D01*
X39637900Y-15675484D01*
X39489023Y-15316064D01*
X39415000Y-15242041D01*
X39415000Y-13132724D01*
X39765484Y-13277900D01*
X40154516Y-13277900D01*
X40513936Y-13129023D01*
X40775001Y-12867958D01*
X40775000Y-16927100D01*
X40665484Y-16927100D01*
X40306064Y-17075977D01*
X40030977Y-17351064D01*
X39882100Y-17710484D01*
X39882100Y-18099516D01*
X40030977Y-18458936D01*
X40306064Y-18734023D01*
X40665484Y-18882900D01*
X40775001Y-18882900D01*
X40775000Y-19445554D01*
X39078000Y-17748554D01*
X39036994Y-17687184D01*
X38793872Y-17524735D01*
X38579477Y-17482089D01*
X38579473Y-17482089D01*
X38507089Y-17467691D01*
X38434705Y-17482089D01*
X36900366Y-17482089D01*
X36827978Y-17467690D01*
X36755590Y-17482089D01*
X36541195Y-17524735D01*
X36298073Y-17687184D01*
X36257068Y-17748552D01*
X35381463Y-18624158D01*
X35320096Y-18665162D01*
X35157646Y-18908284D01*
X35137506Y-19009535D01*
X35020977Y-19126064D01*
X34872100Y-19485484D01*
X34872100Y-19874516D01*
X35020977Y-20233936D01*
X35296064Y-20509023D01*
X35655484Y-20657900D01*
X36044516Y-20657900D01*
X36403936Y-20509023D01*
X36450123Y-20462836D01*
X36655484Y-20547900D01*
X37044516Y-20547900D01*
X37403936Y-20399023D01*
X37565059Y-20237900D01*
X37688454Y-20237900D01*
X41065000Y-23614447D01*
X41065001Y-26815552D01*
X40575554Y-27305000D01*
X39073169Y-27305000D01*
X39000785Y-27290602D01*
X38928401Y-27305000D01*
X38928398Y-27305000D01*
X38714003Y-27347646D01*
X38597900Y-27425224D01*
X38597900Y-27395484D01*
X38449023Y-27036064D01*
X38173936Y-26760977D01*
X37964852Y-26674371D01*
X37955253Y-26626116D01*
X37792804Y-26382994D01*
X37731437Y-26341990D01*
X34977900Y-23588454D01*
X34977900Y-23455484D01*
X34829023Y-23096064D01*
X34553936Y-22820977D01*
X34194516Y-22672100D01*
X33805484Y-22672100D01*
X33446064Y-22820977D01*
X33170977Y-23096064D01*
X33022100Y-23455484D01*
X33022100Y-23812100D01*
X32915484Y-23812100D01*
X32556064Y-23960977D01*
X32280977Y-24236064D01*
X32132100Y-24595484D01*
X32132100Y-24942100D01*
X32042680Y-24942100D01*
X31747899Y-25064203D01*
X31747899Y-25005282D01*
X31762297Y-24932898D01*
X31747899Y-24860512D01*
X31747899Y-24860511D01*
X31705253Y-24646116D01*
X31542804Y-24402994D01*
X31481437Y-24361990D01*
X31427900Y-24308453D01*
X31427900Y-24175484D01*
X31279023Y-23816064D01*
X31003936Y-23540977D01*
X30644516Y-23392100D01*
X30425000Y-23392100D01*
X30425000Y-22124446D01*
X32351547Y-20197900D01*
X32484516Y-20197900D01*
X32843936Y-20049023D01*
X33119023Y-19773936D01*
X33267900Y-19414516D01*
X33267900Y-19025484D01*
X33119023Y-18666064D01*
X32843936Y-18390977D01*
X32484516Y-18242100D01*
X32095484Y-18242100D01*
X31736064Y-18390977D01*
X31460977Y-18666064D01*
X31312100Y-19025484D01*
X31312100Y-19158453D01*
X30463553Y-20007000D01*
X30459023Y-19996064D01*
X30183936Y-19720977D01*
X29824516Y-19572100D01*
X29435484Y-19572100D01*
X29076064Y-19720977D01*
X28800977Y-19996064D01*
X28652100Y-20355484D01*
X28652100Y-20488453D01*
X27971465Y-21169089D01*
X27910095Y-21210095D01*
X27747646Y-21453218D01*
X27705000Y-21667613D01*
X27705000Y-21667616D01*
X27690602Y-21740000D01*
X27705000Y-21812384D01*
X27705001Y-26282484D01*
X27629905Y-26170095D01*
X27568538Y-26129091D01*
X27077900Y-25638454D01*
X27077900Y-25505484D01*
X26929023Y-25146064D01*
X26653936Y-24870977D01*
X26294516Y-24722100D01*
X25905484Y-24722100D01*
X25546064Y-24870977D01*
X25270977Y-25146064D01*
X25122100Y-25505484D01*
X25122100Y-25894516D01*
X25270977Y-26253936D01*
X25546064Y-26529023D01*
X25905484Y-26677900D01*
X26038454Y-26677900D01*
X26365000Y-27004447D01*
X26365001Y-27374940D01*
X26274727Y-27465214D01*
X19535865Y-20726352D01*
X19602900Y-20564516D01*
X19602900Y-20175484D01*
X19454023Y-19816064D01*
X19260000Y-19622041D01*
X19260000Y-12289709D01*
X19478936Y-12199023D01*
X19754023Y-11923936D01*
X19902900Y-11564516D01*
X19902900Y-11175484D01*
X19754023Y-10816064D01*
X19478936Y-10540977D01*
X19119516Y-10392100D01*
X18730484Y-10392100D01*
X18371064Y-10540977D01*
X18095977Y-10816064D01*
X17947100Y-11175484D01*
X17947100Y-11311925D01*
X17832646Y-11483218D01*
X17790000Y-11697613D01*
X17790000Y-11697616D01*
X17775602Y-11770000D01*
X17790000Y-11842384D01*
X17790001Y-19830491D01*
X17647100Y-20175484D01*
X17647100Y-20564516D01*
X17795977Y-20923936D01*
X17912506Y-21040465D01*
X17932646Y-21141716D01*
X18095096Y-21384838D01*
X18156463Y-21425842D01*
X26469158Y-29738538D01*
X26510162Y-29799905D01*
X26753284Y-29962354D01*
X26967679Y-30005000D01*
X26967683Y-30005000D01*
X27040067Y-30019398D01*
X27112451Y-30005000D01*
X30607616Y-30005000D01*
X30680000Y-30019398D01*
X30752384Y-30005000D01*
X30752388Y-30005000D01*
X30966783Y-29962354D01*
X31123109Y-29857900D01*
X31264516Y-29857900D01*
X31623936Y-29709023D01*
X31899023Y-29433936D01*
X32047900Y-29074516D01*
X32047900Y-28685484D01*
X31899023Y-28326064D01*
X31623936Y-28050977D01*
X31264516Y-27902100D01*
X30875484Y-27902100D01*
X30540412Y-28040892D01*
X30519023Y-27989253D01*
X30425000Y-27895230D01*
X30425000Y-26466010D01*
X30482994Y-26552804D01*
X30544364Y-26593810D01*
X32502100Y-28551547D01*
X32502100Y-28674516D01*
X32650977Y-29033936D01*
X32926064Y-29309023D01*
X33285484Y-29457900D01*
X33674516Y-29457900D01*
X34033936Y-29309023D01*
X34309023Y-29033936D01*
X34309803Y-29032054D01*
X34794616Y-29516867D01*
X34729651Y-29543777D01*
X34613122Y-29660306D01*
X34511871Y-29680446D01*
X34268749Y-29842895D01*
X34227743Y-29904265D01*
X34077008Y-30055000D01*
X19047388Y-30055000D01*
X18975000Y-30040601D01*
X18902612Y-30055000D01*
X18688217Y-30097646D01*
X18445095Y-30260095D01*
X18404090Y-30321463D01*
X17023454Y-31702100D01*
X16890484Y-31702100D01*
X16531064Y-31850977D01*
X16255977Y-32126064D01*
X16107100Y-32485484D01*
X16107100Y-32652654D01*
X15622346Y-32167900D01*
X15779516Y-32167900D01*
X16138936Y-32019023D01*
X16414023Y-31743936D01*
X16562900Y-31384516D01*
X16562900Y-31251546D01*
X20335377Y-27479070D01*
X20583936Y-27376113D01*
X20859023Y-27101026D01*
X21007900Y-26741606D01*
X21007900Y-26352574D01*
X20859023Y-25993154D01*
X20583936Y-25718067D01*
X20224516Y-25569190D01*
X19835484Y-25569190D01*
X19476064Y-25718067D01*
X19200977Y-25993154D01*
X19102900Y-26229932D01*
X19102900Y-25915484D01*
X18954023Y-25556064D01*
X18678936Y-25280977D01*
X18319516Y-25132100D01*
X18186547Y-25132100D01*
X11240000Y-18185554D01*
X11240000Y-11517959D01*
X11334023Y-11423936D01*
X11482900Y-11064516D01*
X11482900Y-10675484D01*
X11334023Y-10316064D01*
X11058936Y-10040977D01*
X10699516Y-9892100D01*
X10310484Y-9892100D01*
X9951064Y-10040977D01*
X9675977Y-10316064D01*
X9527100Y-10675484D01*
X9527100Y-11064516D01*
X9675977Y-11423936D01*
X9770000Y-11517959D01*
X9770001Y-18417611D01*
X9755602Y-18490000D01*
X9812646Y-18776782D01*
X9934091Y-18958537D01*
X9975096Y-19019905D01*
X10036463Y-19060909D01*
X17147100Y-26171547D01*
X17147100Y-26304516D01*
X17295977Y-26663936D01*
X17571064Y-26939023D01*
X17930484Y-27087900D01*
X18319516Y-27087900D01*
X18678936Y-26939023D01*
X18954023Y-26663936D01*
X19052100Y-26427158D01*
X19052100Y-26683453D01*
X15523454Y-30212100D01*
X15390484Y-30212100D01*
X15031064Y-30360977D01*
X14755977Y-30636064D01*
X14607100Y-30995484D01*
X14607100Y-31152654D01*
X12340000Y-28885554D01*
X12340000Y-28747959D01*
X12434023Y-28653936D01*
X12582900Y-28294516D01*
X12582900Y-27905484D01*
X12434023Y-27546064D01*
X12158936Y-27270977D01*
X11799516Y-27122100D01*
X11410484Y-27122100D01*
X11051064Y-27270977D01*
X10775977Y-27546064D01*
X10627100Y-27905484D01*
X10627100Y-28294516D01*
X10775977Y-28653936D01*
X10870000Y-28747959D01*
X10870000Y-29117615D01*
X10855602Y-29190000D01*
X10865821Y-29241374D01*
X10212900Y-28588454D01*
X10212900Y-28455484D01*
X10064023Y-28096064D01*
X9788936Y-27820977D01*
X9429516Y-27672100D01*
X9040484Y-27672100D01*
X8681064Y-27820977D01*
X8540000Y-27962041D01*
X8540000Y-19897959D01*
X8634023Y-19803936D01*
X8782900Y-19444516D01*
X8782900Y-19055484D01*
X8634023Y-18696064D01*
X8358936Y-18420977D01*
X7999516Y-18272100D01*
X7610484Y-18272100D01*
X7251064Y-18420977D01*
X6975977Y-18696064D01*
X6827100Y-19055484D01*
X6827100Y-19444516D01*
X6975977Y-19803936D01*
X7070001Y-19897960D01*
X7070000Y-30362041D01*
X6828936Y-30120977D01*
X6469516Y-29972100D01*
X6080484Y-29972100D01*
X5721064Y-30120977D01*
X5445977Y-30396064D01*
X5297100Y-30755484D01*
X5220000Y-30755484D01*
X5220000Y-24947959D01*
X5314023Y-24853936D01*
X5462900Y-24494516D01*
X5462900Y-24105484D01*
X5314023Y-23746064D01*
X5038936Y-23470977D01*
X4679516Y-23322100D01*
X4290484Y-23322100D01*
X3931064Y-23470977D01*
X3655977Y-23746064D01*
X3507100Y-24105484D01*
X710000Y-24105484D01*
X710000Y-4959495D01*
X1408466Y-4959495D01*
X1541409Y-5445050D01*
X2534469Y-5897401D01*
X3625045Y-5935292D01*
X4647106Y-5552952D01*
X4808591Y-5445050D01*
X4941534Y-4959495D01*
X3175000Y-3192961D01*
X1408466Y-4959495D01*
X710000Y-4959495D01*
X710000Y-4414412D01*
X797048Y-4647106D01*
X904950Y-4808591D01*
X1390505Y-4941534D01*
X3157039Y-3175000D01*
X3192961Y-3175000D01*
X4959495Y-4941534D01*
X5445050Y-4808591D01*
X5897401Y-3815531D01*
X5909286Y-3473450D01*
X11342000Y-3473450D01*
X11342000Y-4252357D01*
X11516011Y-4672458D01*
X11837543Y-4993989D01*
X12257643Y-5168000D01*
X13036550Y-5168000D01*
X13322300Y-4882250D01*
X13322300Y-3187700D01*
X11627750Y-3187700D01*
X11342000Y-3473450D01*
X5909286Y-3473450D01*
X5935292Y-2724955D01*
X5700623Y-2097643D01*
X11342000Y-2097643D01*
X11342000Y-2876550D01*
X11627750Y-3162300D01*
X13322300Y-3162300D01*
X13322300Y-1467750D01*
X13036550Y-1182000D01*
X12257643Y-1182000D01*
X11837543Y-1356011D01*
X11516011Y-1677542D01*
X11342000Y-2097643D01*
X5700623Y-2097643D01*
X5552952Y-1702894D01*
X5445050Y-1541409D01*
X4959495Y-1408466D01*
X3192961Y-3175000D01*
X3157039Y-3175000D01*
X1390505Y-1408466D01*
X904950Y-1541409D01*
X710000Y-1969389D01*
X710000Y-710000D01*
X1935588Y-710000D01*
X1702894Y-797048D01*
G36*
X24964375Y-4245625D02*
X25455582Y-4573839D01*
X25465627Y-4575837D01*
X25505095Y-4634905D01*
X25566465Y-4675911D01*
X27039090Y-6148537D01*
X27080095Y-6209905D01*
X27323217Y-6372354D01*
X27537612Y-6415000D01*
X27537615Y-6415000D01*
X27609999Y-6429398D01*
X27682383Y-6415000D01*
X34525554Y-6415000D01*
X38845553Y-10735000D01*
X34017959Y-10735000D01*
X33923936Y-10640977D01*
X33564516Y-10492100D01*
X33175484Y-10492100D01*
X32816064Y-10640977D01*
X32540977Y-10916064D01*
X32392100Y-11275484D01*
X32392100Y-11664516D01*
X32540977Y-12023936D01*
X32577041Y-12060000D01*
X31731051Y-12060000D01*
X31439397Y-11768346D01*
X30972619Y-11575000D01*
X30560157Y-11575000D01*
X30294748Y-11309591D01*
X30250953Y-11244047D01*
X29991292Y-11070546D01*
X29762316Y-11025000D01*
X29762312Y-11025000D01*
X29685000Y-11009622D01*
X29607688Y-11025000D01*
X23735158Y-11025000D01*
X16949693Y-4239536D01*
X17145000Y-3947239D01*
X17344375Y-4245625D01*
X17684684Y-4473012D01*
X17722646Y-4663863D01*
X17824344Y-4816064D01*
X17885096Y-4906986D01*
X17946463Y-4947990D01*
X19567009Y-6568537D01*
X19608014Y-6629905D01*
X19851136Y-6792354D01*
X20065531Y-6835000D01*
X20065534Y-6835000D01*
X20137918Y-6849398D01*
X20210302Y-6835000D01*
X22762041Y-6835000D01*
X22856064Y-6929023D01*
X23215484Y-7077900D01*
X23604516Y-7077900D01*
X23963936Y-6929023D01*
X24239023Y-6653936D01*
X24387900Y-6294516D01*
X24387900Y-6167347D01*
X24955001Y-6734448D01*
X24955000Y-8422041D01*
X24860977Y-8516064D01*
X24712100Y-8875484D01*
X24712100Y-9264516D01*
X24860977Y-9623936D01*
X25136064Y-9899023D01*
X25495484Y-10047900D01*
X25884516Y-10047900D01*
X26243936Y-9899023D01*
X26519023Y-9623936D01*
X26667900Y-9264516D01*
X26667900Y-8875484D01*
X26519023Y-8516064D01*
X26425000Y-8422041D01*
X26425000Y-6502388D01*
X26439399Y-6430000D01*
X26395619Y-6209904D01*
X26382354Y-6143217D01*
X26219905Y-5900095D01*
X26158537Y-5859090D01*
X24553304Y-4253858D01*
X24565625Y-4245625D01*
X24765000Y-3947239D01*
X24964375Y-4245625D01*
X24964375Y-4245625D01*
G37*
X24964375Y-4245625D02*
X25455582Y-4573839D01*
X25465627Y-4575837D01*
X25505095Y-4634905D01*
X25566465Y-4675911D01*
X27039090Y-6148537D01*
X27080095Y-6209905D01*
X27323217Y-6372354D01*
X27537612Y-6415000D01*
X27537615Y-6415000D01*
X27609999Y-6429398D01*
X27682383Y-6415000D01*
X34525554Y-6415000D01*
X38845553Y-10735000D01*
X34017959Y-10735000D01*
X33923936Y-10640977D01*
X33564516Y-10492100D01*
X33175484Y-10492100D01*
X32816064Y-10640977D01*
X32540977Y-10916064D01*
X32392100Y-11275484D01*
X32392100Y-11664516D01*
X32540977Y-12023936D01*
X32577041Y-12060000D01*
X31731051Y-12060000D01*
X31439397Y-11768346D01*
X30972619Y-11575000D01*
X30560157Y-11575000D01*
X30294748Y-11309591D01*
X30250953Y-11244047D01*
X29991292Y-11070546D01*
X29762316Y-11025000D01*
X29762312Y-11025000D01*
X29685000Y-11009622D01*
X29607688Y-11025000D01*
X23735158Y-11025000D01*
X16949693Y-4239536D01*
X17145000Y-3947239D01*
X17344375Y-4245625D01*
X17684684Y-4473012D01*
X17722646Y-4663863D01*
X17824344Y-4816064D01*
X17885096Y-4906986D01*
X17946463Y-4947990D01*
X19567009Y-6568537D01*
X19608014Y-6629905D01*
X19851136Y-6792354D01*
X20065531Y-6835000D01*
X20065534Y-6835000D01*
X20137918Y-6849398D01*
X20210302Y-6835000D01*
X22762041Y-6835000D01*
X22856064Y-6929023D01*
X23215484Y-7077900D01*
X23604516Y-7077900D01*
X23963936Y-6929023D01*
X24239023Y-6653936D01*
X24387900Y-6294516D01*
X24387900Y-6167347D01*
X24955001Y-6734448D01*
X24955000Y-8422041D01*
X24860977Y-8516064D01*
X24712100Y-8875484D01*
X24712100Y-9264516D01*
X24860977Y-9623936D01*
X25136064Y-9899023D01*
X25495484Y-10047900D01*
X25884516Y-10047900D01*
X26243936Y-9899023D01*
X26519023Y-9623936D01*
X26667900Y-9264516D01*
X26667900Y-8875484D01*
X26519023Y-8516064D01*
X26425000Y-8422041D01*
X26425000Y-6502388D01*
X26439399Y-6430000D01*
X26395619Y-6209904D01*
X26382354Y-6143217D01*
X26219905Y-5900095D01*
X26158537Y-5859090D01*
X24553304Y-4253858D01*
X24565625Y-4245625D01*
X24765000Y-3947239D01*
X24964375Y-4245625D01*
M02*
